<svg xmlns="http://www.w3.org/2000/svg" width="3000" height="590" viewBox="0 0 3000 590"><path fill="#E34B30" d="M255.328 345.988l78.395 7.88 18.06-41.57 90.75 94.68L556.754 335.2l64.016 100.426 72.724-20.77 58.113 81.848 40.547-11.543 31.926 40.18 53.695 16.345h99.64l63.08-11.914 37.085 5.45 76.945-20.312 78.625 10.434 91.715-28.637 70.434 18.203 65.753-13.516 25.445 13.516H1646.4l138.238 10.434h84.074l96.2-28.637 39.894-23.64 19.38 12.097 104.687-12.098 73.102-25.438 68.98 10.223 52.8-10.224 105.046-139.446 169.743 181.848h85l29.188-83.05 30.67 118.362 51.952 16.344 71.074-153.11 14.32 47.052 21.28-123.328 25.22 160.766 14.32-84.488 43.25 249.37H23.09L255.328 345.99z"/><g fill="#BA3525"><path d="M109.398 496.027l127.836-55.46 61.633-59.524 76.996 94.867 240.318-65.664 62.616 85.78 81.36-20.116 70.67 88.605 81.233-20.44 69.206 20.44h417.889l128.836-7.324 56.57-21.284 88.044 21.285 181.53-25.315 75.132 39.742L2111.3 519.19l29.722-23.163 60.963 23.164 76.172-23.163 71.932-114.984 103.81 48.75 71.86-144.023 84.56 173.324 46.958-83.367 35.69 143.465 267.966 197.28-2765.73-62.663-85.806-157.783z"/><path d="M2114 502h40v-40h-40v40z"/></g><g fill="#991F16"><path d="M-49 409h185v180H-49zM2933 409h185v180h-185z"/><path d="M-45.61 556.47L90.1 400.33l117.827 78.348 133.56-102.113 40.535 23.766 60.762-112.223 162.21 185.5 60.376-34.633 88.41 111.258h463.258l39.887-13.152 16.984 13.152h199.047l28.81-13.152 73.097 13.152h266.216l157.12-50.438 85.142-2 123.648 69.72 82.625-51.4 73.204-16.32 34.633 50.44 128.66-50.44 77.14-161.526 47.175 187.952 34.373-114.658 28.602 100.164 198.457-61.13 34.242-100.32 140.93 274.282-1654.562 88.473L-38.44 667.04l-7.17-110.57z"/><path d="M-.675 596.89c-105.662-53.222 22.177-156.146 94.065-302.893 99.973-207.426 242.953-155.97 242.953-155.97 96.306 28.556 148.54 2.096 148.54 2.096 84.733-26.92 35.338 34.628 35.338 34.628-54.496 60.487-142.016 46.378-142.016 46.378-141.833-19.272-185.74 94.987-197.87 144.078C160.2 452.976 104.986 650.11-.676 596.89zm148.388-261.273c-5.865-3.112-7.024-12.554-2.52-21.23 4.447-8.518 13.03-12.912 18.878-9.866 6.013 3.21 7.098 12.746 2.66 21.252-4.602 8.603-13.015 12.978-19.017 9.845zm29.86-55.34c-5.43-3.954-5.005-13.542.858-21.243 5.812-7.81 14.95-10.66 20.22-6.68 5.344 4.175 4.972 13.584-.882 21.36-5.8 7.733-14.948 10.662-20.195 6.562zm44.847-49.5c-3.793-5.478-.45-14.463 7.36-20.06 7.868-5.538 17.462-5.69 21.383-.264 3.888 5.467.597 14.562-7.394 20.104-7.848 5.535-17.408 5.73-21.35.22zm58.07-31.607c-1.13-6.545 5.77-13.212 15.343-14.56 9.544-1.575 18.114 2.606 19.236 9.162 1.096 6.587-5.872 13.272-15.445 14.688-9.51 1.532-18.22-2.536-19.136-9.29zm62.77-6.757c.33-6.07 7.91-10.498 16.72-10.014 8.773.525 15.625 5.878 15.228 12.034-.37 6.125-7.793 10.52-16.59 10.132-8.86-.61-15.7-5.955-15.358-12.153zm56.692 3.564c-.436-5.267 5.555-10.218 13.207-10.773 7.75-.702 14.343 3.184 14.8 8.535.36 5.36-5.5 10.124-13.258 10.836-7.803.66-14.37-3.153-14.75-8.6zm55.91-15.863c5.74-3.01 12.125-2.228 14.144 1.778 2.192 3.937-.82 9.675-6.634 12.607-5.735 3.027-12.197 2.255-14.133-1.857-2.094-3.91.866-9.67 6.623-12.53zM2618.365 848.373c116.203 52.385 115.703-124.44 189.83-284.13 105.894-224.35-34.137-309.175-34.137-309.175-89.207-61.276-102.468-122.953-102.468-122.953-34.91-89.2-52.954-6.11-52.954-6.11-13.694 86.643 57.46 150.355 57.46 150.355 112.304 105.69 46.405 219.923 13.524 263.364-64.314 64.173-187.458 256.264-71.255 308.65zm118.15-301.395c6.583 2.802 15.274-2.63 19.486-12.284 4.116-9.498 1.978-19.665-4.538-22.496-6.763-2.858-15.483 2.7-19.597 12.185-4.084 9.682-2.043 19.693 4.65 22.595zm26.09-62.525c6.992 1.868 14.73-4.99 17.205-15.12 2.6-10.162-1.21-19.746-8.118-21.46-7.118-1.643-14.743 5.047-17.286 15.222-2.54 10.1 1.21 19.745 8.2 21.358zm11.038-71.11c7.16-.54 12.417-9.43 11.808-19.767-.697-10.34-7.076-18.477-14.276-18.082-7.214.45-12.598 9.374-11.82 19.822.685 10.325 7.004 18.46 14.29 18.026zm-12.907-70.052c6.246-3.49 7.148-13.79 1.787-22.72-5.152-9.06-14.464-13.4-20.713-9.894-6.26 3.548-7.133 13.913-1.827 22.89 5.165 9.002 14.478 13.538 20.753 9.725zm-36.903-57.14c4.86-4.393 3.426-13.74-2.95-20.787-6.39-6.99-15.52-9.098-20.404-4.59-4.877 4.462-3.526 13.658 2.764 20.758 6.52 7.007 15.633 9.11 20.59 4.62zm-41.423-45.05c4.705-3.207 4.79-11.578.065-18.363-4.667-6.964-12.392-9.85-17.18-6.604-4.735 3.333-4.75 11.468-.087 18.448 4.74 6.98 12.384 9.894 17.202 6.52zm-30.626-43.53c4.693-.897 7.51-7.282 6-14.04-1.372-6.845-6.356-11.662-11.08-10.636-4.782.833-7.545 7.245-6.058 14.102 1.354 6.857 6.38 11.743 11.138 10.575z"/></g><g fill="#991F16"><path d="M1000.97 420.342s.682 14.37.682 19.166c2.41 4.984 9.168 30.08 9.168 56.325s-6.265 36.788-6.265 36.788h-6.963s-6.048-10.822-6.048-36.787 5.177-44.792 8.875-56.325c0-4.873.55-19.166.55-19.166z"/><path d="M988.24 495.212l-1.268 21.222 14.32-1.115s-.148 2.56-.148 5.687c-18.198-3.128-20.47 18.95-24.698 30.48l-2.51.682 11.828-56.88 2.475-.078z"/><path d="M1013.993 495.212l1.268 21.222-14.32-1.115s.148 2.56.148 5.687c18.2-3.128 20.47 18.95 24.7 30.48l2.51.682-11.83-56.882-2.475-.076z"/></g><g fill="#991F16"><path d="M940.058 519.866c0-1.556-.933-2.84-.933-2.84l15.327.458s-11.902 1.034-11.902 1.966c0 .96 5.5 2.567 5.5 2.567l-8.925.687s.933-1.283.933-2.838zM911.823 515.823c20.7 0 25.715-.904 25.715 3.814s-20.365 5.537-25.715 5.537c-5.348 0-25.714-.557-25.714-5.536s5.015-3.815 25.713-3.815z"/><path d="M909.336 519.496c0-.417-.01-1.98-.016-2.95-3.227.702-3.908-1.368-3.908-1.368-.527-1.34-1.287-1.697-1.287-1.697-1.053-.72.08-.704.08-.704 1.164.082 1.777 1.195 1.777 1.195 1.034 1.774 2.713 1.262 3.375.966.104-.75.405-1.262.736-1.552-2.576-.293-5.284-1.288-5.284-5.732 0-1.267.452-2.3 1.193-3.113-.12-.294-.518-1.474.113-3.07 0 0 .974-.313 3.19 1.188.925-.257 1.917-.386 2.903-.39.984.004 1.978.133 2.905.39 2.214-1.5 3.187-1.19 3.187-1.19.63 1.6.234 2.778.113 3.07.744.813 1.194 1.848 1.194 3.114 0 4.455-2.715 5.437-5.298 5.724.416.36.787 1.065.787 2.147 0 1.553-.018 3.727-.018 3.974-.658.182-1.688.36-2.874.36-1.184-.002-2.137-.168-2.872-.36z"/><path d="M911.95 519.26c4.778 0 7.84-.382 10.203-1.502 2.96-1.4 4.49-3.94 4.49-7.85 0-8.115-6.58-14.694-14.694-14.694s-14.695 6.58-14.695 14.694c0 3.91 1.53 6.448 4.49 7.85 2.364 1.12 5.425 1.5 10.204 1.5zm0-2.005c-9.575 0-13.36-1.792-13.36-8.015 0-7.378 5.982-13.358 13.36-13.358 7.377 0 13.357 5.98 13.357 13.358 0 6.223-3.784 8.015-13.358 8.015z"/></g></svg>