<svg xmlns="http://www.w3.org/2000/svg" width="230" height="230"><path d="M221.324 170.908c-7.916 14.57-29.083 27.025-43.96 35.44-16.836 9.52-40.845 22.695-60.444 23.61-17.314.808-39.313-10.287-54.46-18.252-17.145-9.016-41.226-22.076-51.864-37.656C1.198 160.287.368 136.737.094 120.36c-.31-18.54-.38-44.773 8.582-61.268 7.916-14.57 29.083-27.025 43.96-35.438C69.47 14.132 93.48.957 113.08.042c17.314-.808 39.313 10.288 54.46 18.253 17.145 9.016 41.226 22.075 51.864 37.655 9.397 13.763 10.228 37.313 10.5 53.69.312 18.54.38 44.773-8.58 61.268z"/></svg>