<svg xmlns="http://www.w3.org/2000/svg" width="700" height="500" viewBox="0 0 700 500"><path fill="#00403F" d="M511 83.5c.038 0 .038-5 0-5s-.038 5 0 5z"/><path fill="#B22E13" d="M665 95.666v.023c-.16-.022-.32-.04-.492-.056-3.79-.33-6.954 1.08-10.844.617-1.645-.194-2.255-.43-3.7-.06-3.558.905-6.236 1.294-9.71-.28-3.133-1.418-5.414-1.61-8.826-.962-4.53.863-8.924.442-13.448-.61-3.904-.906-7.263-2.81-11.378-3.173-4.682-.41-8.02-.77-12.008-2.572-1.508-.68-2.088-2.292-3.652-2.59-2.193-.418-4.113.973-6.06.31-2.913-.993-3.827-3.508-7.175-3.867-5.223-.56-10.336-1.705-15.422-2.8-2.86-.616-3.997-3.364-6.268-4.896-2.312-1.56-5.377-1.127-7.7-2.64-1.31-.853-1.886-1.447-3.532-1.825-2.396-.55-6.004-.54-8.044-2.134-.41-.32-.857-1.348-1.255-1.516-1.043-.442-3.053.393-4.23.204-1.93-.308-3.125-1.53-5.105-1.684-5.386-.415-9.863-.224-15.15.768-3.557.667-7.103 1.573-10.516 2.78-1.35.477-2.188 1.397-3.398 1.94-1.273.574-2.74-.024-3.98.624-1.38.72-1.72 2.248-3.34 2.646-1.646.407-2.914.072-4.49.986-1.327.77-2.422 1.913-3.75 2.633-1.288.7-2.805 1.368-4.192 1.79-2.477.755-5.408.192-7.643 1.543-1.545.934-2.78 1.95-4.373 2.712-2.09.997-3.895 1.584-5.437 3.403-1.8 2.125-3.507 4.26-5.49 6.23-4.316 4.278-9.11 8.026-13.67 12.032-5.34 4.688-9.583 12.287-16.17 15.137-2.44 1.057-5.686 1.453-8.317 1.566-3.06.133-5.93-1.316-9.05-.8-4.22.702-8.762 2.147-13.056 1.59-3.873-.5-7.906-1.766-11.453-3.655-4.918-2.623-8.41-1.662-13.082-3.492-5.074-1.986-6.096-2.303-11.445-2.514-6.13-.243-8.595-3.63-15.035-2.484-6.004 1.068-12.56 1.666-18.657 1.332-9.733-.53-16.332-5.984-24.077-11.63-11.414-8.32-22.538-7.937-35.048-12.403-4.372-1.56-7.218-5.73-12.814-5.732-4.55 0-7.268-.456-12.116-2.29-8.96-3.387-17.467.68-26.47.67-6.25-.007-12.393.44-18.5-.55-4.056-.656-13.727-4.482-17.503-3.01-2.945 1.15-8.77 1.545-12.512 1.59-3.91 2.782-11.102-1.332-15.53-1.117-6.163.3-10.875-.902-16.66-1.17.208.074.292.228.253.46-4.478 3.236-18.806-.77-23.365-3.605-12.678 3.963-29.12 3.73-39.262-7.252-5.27-5.706-12.59-5.496-18.775-9.657-9.155-6.158-13.25-1.303-23.032-.595-6.8.492-14.18-1.115-21.375-2.002 0 0 25.666 9.865 0-.548s-52.9 0-52.9 0v393.836H0v.007c1.575 0 4.14 0 7.57-.006h.096c76.376-.1 587.994-1.245 657.334-1.295h74.176V95.665H665z"/></svg>