<svg xmlns="http://www.w3.org/2000/svg" width="700" height="500" viewBox="0 0 700 500"><path fill="#00403F" d="M511 83.5c.038 0 .038-5 0-5s-.038 5 0 5z"/><path fill="#3B0800" d="M702.782 139c-.716-9.22-5.562-13.47-11.223-16.7-3.878-2.213-7.516-1.51-11.36.34-1.65.794-3.378 1.98-5.053 2.532-1.684.554-3.937-.66-5.297 1.297-1.07-.106-2.194.716-3.157.3-.854 1.116-2.14 1.097-3.313 1.214-1.42.144-1.854 1.36-2.98 1.502-1.73.217-2.244-1.686-4.083-.476-2.494 1.644-4.007 2.717-6.688 3.032-3.056.357-5.808 2.295-8.956 1.868-2.21-.3-4.25 1.26-6.14 2.693-.935.71-1.93 1.778-2.95 2.197-1.138.466-1.835-.633-2.88-.178-1.023.443-1.37 2.524-2.413 2.975-1.167.504-2.674-.526-3.913-.534-.96-.006-2.633 1.58-3.24.896-1.786 2.557-3.778 1.214-5.912 1.334-1.845.104-3.696.107-5.508.69-1.43.46-2.7 1.453-4.176 1.914-3.02.946-5.976 3.887-8.804 5.766-3.233 2.148-6.63 3.746-10.14 4.63-1.514.38-3.012 1.303-4.534 1.683-2.103.525-2.27-.352-3.713 2.272-.757 1.372-1.93 2.81-3.23 2.87-.69.035-1.45-.828-2.108-.908-.77-.092-1.373.35-2.088.6-1.498.525-3.02.663-4.486 1.213-1.604.603-2.963 1.632-4.58 1.926-1.64.3-3.37-.01-5.033.23-2.412.346-4.698 1.847-6.764 2.803-3.455 1.6-7.436 3.446-11.088 3.587-2 .078-3.86-1.958-5.878-1.5-1.577.358-2.783 2.127-4.354 2.24-2.097.15-3.998-.83-6.155-.26-1.682.447-3.442.88-5.18 1.222-1.327.263-2.473.668-3.708 1.586-1.507 1.12-2.717 1.69-4.36 2.5-1.52.75-2.097 2.12-3.686 2.743-1.15.45-2.32.972-3.556 1.633-2.178 1.165-4.017 2.47-6.34 2.5-2.204.03-3.86 1.3-5.868 2.536-1.488.914-3.11 1.81-4.682 2.33-1.34.446-2.853.134-4.14.84-.58.32-1.985.777-2.405 1.388-.63.918-.523 2.342-1.026 3.354-.65 1.31-1.89 1.896-2.508 3.37-.642.517-1.18.993-1.82 1.504-1.6 1.267-1.672 1.034-1.642 3.798.033 2.916-.456 3.843-1.97 5.768-.338.426-.714.778-1.115 1.098-.848.674-1.804 1.2-2.717 1.984-1.13.97-2.462 3.21-3.72 3.28-.71.043-2.693-.942-3.457-1.283-2.544-1.137-5.062-2.37-7.385-4.217-1.63-1.294-1.93-1.01-3.718-1.05-1.317-.03-2.455-.725-3.705-.634-1.015.07-1.39.276-2.412-.29-2.43-1.345-5.277-1.747-8.02-2.136-3.127-.44-5.53-1.853-8.25-3.983-3.252-2.545-6.495-3.992-10.085-5.142-3.294-1.054-6.952-2.396-9.15-6.394-3.338-6.07-6.156-13.477-10.787-18.022-3.98-3.902-8.816-5.55-12.884-9.325-3.818-3.54-7.146-8.552-11.793-9.716-5.417-1.354-11.11.47-16.453-1.645-5.75-2.277-8.957-8.034-13.9-12.175-3.617-3.026-7.535-4.23-11.35-6.583-3.925-2.416-7.91-4.842-11.08-7.61-3.025-2.64-5.005-6.776-7.868-9.57-5.23-5.106-12.43-1.108-18.292-2.063-5.472-.892-11.592-1.928-16.415 1.594-2.138 1.56-4.56 1.912-6.762 3.19-1.817 1.058-1.266 3.316-3.577 3.84-1.253.284-2.546.29-3.787.63-1.06.287-2.418 1.014-3.41 1.145-.515.068-1.07-.343-1.53-.24-.47.105-.914.73-1.292.993-.986.684-1.91 1.37-3.146 1.404-.314 1.062-1.434 2.915-2.502 3.548-1.448.858-3.12.604-4.726.85-2.624.404-4.682 3.23-7.222 4.02-.5 1.454-4.568 2.22-5.984 2.655-1.126.345-2.193.742-3.344.533-1.167-.21-2.077-.88-3.178-.997-1.394-.15-3.027-.19-4.388.213-1.59.474-2.76 1.72-4.246 2.24-1.536.537-3.17.062-4.485.895-1.17.74-1.68 1.503-3.03 1.947-.936.31-2.065.672-2.9 1.16-.992.58-1.607 1.555-2.465 2.25-2.057 1.66-5.46 1.038-7.802.376-1.125-.317-2.277-1.116-3.43-1.23-1.306-.13-2.218.867-3.463 1.01-2.423.277-5.447.09-7.8-.56-1.397-.387-2.547-.935-3.99-.7-1.307.214-2.633.215-3.91.35-1.557.168-2.994.094-4.514-.087-.992-.12-2.348.214-3.287-.307-3.13 1.082-6.242.777-9.628 1.153-.852.094-1.81.702-2.694.51-.515-.11-.865-.702-1.365-.808-.583-.12-.633.113-1.176.21-1.793.317-3.462.324-5.26.14-6.236-.646-12.8 1.42-18.238.98-5.958-.486-9.79-4.605-16.51-3.84-5.005.568-8.392 3.74-13.575 4.044-3.86.225-7.377-1.43-11.166-1.47-3.48-.038-6.444-1.235-9.812-2.088-2.457-.622-3.91-.25-6.415.303-1.174.26-2.138-.14-3.274-.377-1.555-.32-2.377 0-3.858.57-2.597 1.002-4.777.386-7.383.635-1.338.127-2.4.242-3.794-.045-1.314-.27-2.063-.503-2.814-1.417-1.228-1.493-2.953-2.01-4.968-2.396-2.738-.524-5.565.663-8.185.786-1.184.056-1.69-.586-2.845-.17-1.35.487-2.22 1.65-3.235 2.694-.022 2.105-2.26 1.823-3.39 2.9-.117.11-.057.485-.174.607-.147.15-.453.315-.59.47-.27.312-.566.58-.834.917-.726.912-1.027 1.878-2.03 2.562-1.142.78-2.588 1.134-3.757 1.896-1.04.678-1.71 1.667-2.963 1.86-1.256.195-2.563-.175-3.853.096-1.55.325-2.508-.713-4.096-.597-1.276.095-2.11.695-3.507.506-.957-.13-1.713-.297-2.637-.006-.847.27-1.377.7-2.247.768-1.185.093-2.15-.85-3.27-.737-1.047.106-1.604 1.16-2.53 1.508-.62.23-1.407.154-2.07.294-1.273.266-2.52.69-3.712 1.22-2.532 1.12-30.21 1.81-30.21 4.655v30.998c0 11.02.354 21.665 0 32.73-.318 9.925 0 261.46 0 277.317h784.268V139h-36.396z"/></svg>