<svg xmlns="http://www.w3.org/2000/svg" width="700" height="500" viewBox="0 0 700 500"><path fill="#00403F" d="M511 83.5c.038 0 .038-5 0-5s-.038 5 0 5z"/><path fill="#881700" d="M499.17 179c-4.827-.325-10.73-2.778-15.544-3.7-10.545-2.017-14.533-5.17-22.16-12.656-3.615-3.548-8.554-3.898-13.12-4.977-4.603-1.086-8.23-4.17-12.857-5.1-2.455-.495-5.383-1.574-7.152-3.093-2.038-1.75-4.575-2.26-6.706-3.527-1.147-.684-2.227-1.577-3.584-2.08-2.545-.947-4.02-2.692-6.588-3.736-3.31-1.346-6.77-2.333-10.324-2.57-2.303-.15-4.834-.063-7.045.777-.835.317-1.516.94-2.322 1.265-1.024.412-2.22.167-3.167.823-1.862 1.29-.805 1.372-3.14.906-1.026-.204-1.896.253-3.023.24-1.367-.014-2.75-.535-4.033-.99-1-.357-1.544-.72-2.396-1.426-1.254-1.036-1.784-.605-3.357-1.105-1.32-.42-2.43-1.45-3.892-1.706-2.752-.482-5.034-2.186-7.767-2.422-3.557-.306-7.615.416-10.846-1.53-2.712-1.634-4.674-5.003-7.325-6.937-2.352-1.715-4.916-3.643-7.43-5.016-2.72-1.486-6.085-.602-8.69-2.45-1.886-.086-3.417-1.307-5.44-1.408-2.523-.124-5.09-.1-7.568.418-.875.185-1.1.365-1.862.803-1.858 1.066-2.71.902-4.753.996-3.184.145-5.722 2.91-8.836 3.122-1.198.08-2.27-.333-3.49-.143-1.704.267-3.44.983-5.108 1.463-3.542 1.02-6.86 1.51-10.487 1.86-3.07.297-5.68 2.337-8.73 2.62-2.464.228-4.847.478-7.274.524-3.025.06-6.618 1.894-9.425 3.12-3.204 1.397-7.04 1.047-10.29 2.428-2.852 1.212-6.227 3.187-9.36 2.915-1.198-.104-2.084-.84-3.222-1.104-1.733-.402-3.71.207-5.428.568-2.26.477-4.615.703-6.91.773-2.163.065-3.924-.418-5.957.774-1.942 1.14-2.965 1.23-5.115 1.105-1.992-.113-3.674.256-5.325 1.5-1.003.756-1.06 1.035-2.27 1.076-1.442.052-2.292.507-3.63.843-3.198.8-5.825-.633-8.923-.437-1.214.077-2.244 1.15-3.487 1.313-1.575.205-3.203.53-4.802.753-1 .14-2.17-.164-3.176-.29-.473-.062-.97-.308-1.43-.34-2.265-.153-3.927 1.255-6.147 1.454-2.033.182-4.12-.13-6.125.566-.684.237-1.17.914-1.966 1.035-.915.14-1.6-.426-2.577-.13-.992.3-1.427.93-2.504.91-.7-.01-1.395-.41-2.074-.52-1.86-.31-3.066.914-4.9.587-1.284-.23-1.8-.68-3.055.003-.596.324-.965 1.102-1.56 1.463-1.085.66-2.987 1.464-4.35 1.562-1.407.102-2.7-.784-4.066-.213-3.67 1.533-5.256 5.76-9.46 6.424-4.927.777-9.93.25-14.844 1.137-6.91 1.25-13.967 2.965-21.01 3.896-8.698 1.146-15.68-2.2-24.117-2.14-1.552.01-1.083.753-1.76 1.52-3.947-.303-7.92.36-11.873.168-4.29-.21-6.914-2.87-10.85-3.916-1.105-.295-1.962.274-3.137.237-2.055-.065-4.91-1.193-6.804-1.786-2.512-.786-5.45-.67-7.848-2.24-.994-.65-1.884-1.24-3.02-1.93-1.245-.755-1.63-1.226-3.12-1.322-1.277-.08-1.918.008-3.157-.69-4.517-2.534-9.384-6.79-11.845-11.64-1.06-2.09-2.145-3.897-4.074-5.208-1.304-.887-2.81-1.257-4.196-1.95-1.512-.753-2.388-1.887-3.634-2.946-2.658-2.26-6.27-4.645-9.69-5.063-3.337-.408-6.48-2.893-9-5.32-3.036-2.927-6.924-4.37-10.676-5.96-2.044-.868-4.11-1.68-6.195-2.436v391.2h537.818V500h246.752V179H499.17z"/></svg>