<svg xmlns="http://www.w3.org/2000/svg" width="700" height="500" viewBox="0 0 700 500"><path fill="#00403F" d="M511 83.5c.038 0 .038-5 0-5s-.038 5 0 5z"/><path fill="#1E0400" d="M739.337 606.48c-.414-11.797 0-366.668 0-382.404V195.45v-24.595-56.617c-11.836-.006-23.215-25.36-34.167-25.686.518.195-1.006-.28-1.92-.988-7.306-5.602-17.55 1.78-26.06 1.072-8.28-.69-15.097 6.867-23.31 11.143-6.052 3.147-10.383 9.097-17.056 11.134-5.382 1.645-10.074 3.484-14.768 7.107-6.7 5.177-13.024 4.042-18.72 7.737-4.837 3.14-11.254 5.89-12.502 7.418-11.774 15.63-30.122 9.46-43.997 12.295-5.43 1.11-7.49 3.008-12.803 9.643-4.958 6.197-9.964 12.412-15.296 16.053-5.908 4.035-11.822 8.04-17.755 11.932-2.172 1.424-2.97 2.34-4.537 5.148-1.704 3.053-3.696 2.04-5.798 3.068-1.74.848-3.487.39-4.96 1.63-3.775 3.183-8.165 8.616-12.264 9.612-3.96.965-7.722 1.64-11.654 3.602-.588.293-1.375.418-1.916.943-.15.146-.976 1.524-.994 1.532-.97.42-1.55-.994-2.646-1.268-1.243-.31-.56.088-1.402.924-1.103 1.096-2.274 2.406-3.663.844-.724.91-1.562 2.693-2.334 2.432-.817 2.998-2.5 2.096-3.93 3.154-3.933 2.916-7.932 6.547-12.122 4.928-2.105-.814-3.274.14-5.238 1.338-2.19 1.336-4.57 1.463-6.84 1.9-3.703.71-7.43.02-11.14.418-3.26.35-6.322 1.674-9.6.63-6.77-2.16-12.52-10.595-19.064-14.202-1.38-.762-2.236-.414-3.513-.305-1.64.14-2.854-1.11-4.42-1.887-1.833-.91-3.752-1.338-5.61-2.125-2.315-.98-4.26-2.455-6.658-4.314-1.127-.876-2.47-1.294-3.63-2.362-.842-.77-1.454-1.72-2.165-2.857-.79-1.255-.76-1.233-1.535-2.02-3.102-3.148-6.634-5.395-9.5-9.062-3.117-3.992-6.204-8.758-9.855-10.7-6.004-3.19-11.154-1.423-16.907 2.25-4.92 3.138-8.19 4.446-13.185.413-3.16-2.552-5.847-7-9.178-8.755-3.95-2.082-8.104-.258-12.04-2.504-2.27-1.292-4.25-5.032-6.52-6.065-4.717-2.148-10 2.22-15.965-1.115-7.232-4.043-14.17-9.22-21.514-12.604-5.203-2.396-11.627-3.283-16.672-8.533-6.277-6.537-7.57-19.547-14.4-26.13-12.577-2.806-25.094-14.25-36.412-26.626-5.365-5.867-11.83-11.46-17.183-18.56-3.707-4.917-8.212-14.825-12.784-17.565-5.088-3.053-11.68-3.34-17.056-5.658-7.856-3.385-17.333-5.443-25.495-4.27-10.568 1.52-23.79 19.792-33.33 28.17-8.95 7.856-17.555 20.415-25.816 32.16-4.255 6.046-7.665 9.302-12.153 12.503-7.38 5.262-7.163 11.943-12.185 22.875-8.278 18.02-22.13 13.174-31.884 22.535-8.924 8.56-21.88 13.326-28.554 27.803.175 3.32-.232 7.28 0 10.643v411.42h784.573z"/></svg>