<svg xmlns="http://www.w3.org/2000/svg" width="700" height="500" viewBox="0 0 700 500"><path fill="#00403F" d="M511 83.5c.038 0 .038-5 0-5s-.038 5 0 5z"/><path fill="#9D2006" d="M739.176 76.1c-4.86-1.1-11.786-4.06-15.2-4.537-4.784-.672-9.708-.152-14.52.35-2.26.236-4.577.68-6.843.555-2.113-.117-4.236-.7-6.365-.604-2.332.11-4.318 2.083-6.668 2.37-1.354.163-2.93-.137-4.275-.078-3.63.157-7.215 1.394-10.766.71-4.67-.9-9.157-2.39-13.772-3.52-1.404-.344-3.092-.932-4.55-.846-1.114.066-1.815.633-2.946.69-2.047.103-4.21-2.093-6.277-1.245-1.355.554-1.434 1.865-2.965 2.093-.576.087-1.158-.292-1.65-.22-.658.094-1.49.676-2.06.973-1.185-.454-3.708.935-5.192 1.118-1.857.23-3.465.787-5.244 1.182-1.598.354-2.967 1.463-4.535 1.77-1.9.376-2.833.398-4.642 1.372-1.363.734-2.846 1.117-4.254 1.732-3.578 1.562-6.912 3.752-10.184 5.99-6.668 4.557-13.336 9.353-21.23 10.443-5.433.752-10.82 1.936-16.228 2.928-2.713.497-5.434.957-8.164 1.29-1.094.134-2.795-.075-3.807.373-.83.37-1.04 1.26-1.86 1.647-.77.363-1.896-.124-2.645-.332-2.13-.594-3.188-1.096-5.3-.936-1.747.133-3.813-.445-5.622-.895-1.53-.38-3.914-1.746-5.465-.45-.002 0-1.957-.3-2.2-.28-1.013.084-1.995.484-2.985.707-1.69.38-3.268.243-4.947.395-5.262.48-10.14 3.977-15.467 3.216-1.286-.182-2.333-1.166-3.57-1.465.003-.09.046-.143.126-.158-3.14.617-5.55-1.7-8.803-.258-1.01.446-1.807 1.335-2.812 1.747-1.52.624-3.25.274-4.82.363-1.28.073-1.415-.082-2.618.51-.963.472-1.922 1.266-2.996 1.396-1.645.198-3.166-.9-4.783-.873-1.71.03-2.12 1.326-3.482 1.854-1.15.446-3.13-.11-4.327-.16-3.498-.145-6.342 2.135-9.7 2.455-3.438.33-6.495 1.697-9.91 2.266-2.722.45-5.44-.42-8.13-.557-1.926-.1-2.674-.78-4.242-1.59-1.4-.724-2.388-.593-3.853-.554-1.73.047-3.795-.39-5.51.114-.943.276-1.336.693-2.35.882-1.04.193-1.605.15-2.523.5-1.332.507-2.547 1.376-3.785 2.033-2.24 1.188-3.245-.457-5.304-.723-1.963-.255-4.172.078-5.7-1.514-1.33-1.383-1.72-2.648-3.528-3.613-3.594-1.912-8.34-3.16-11.965-.34-1.01.786-1.89 1.67-2.87 2.475-1.116.92-1.116 1.71-1.99 2.68-1.767 1.952-4.485 1.108-6.53 2.254-2.227 1.25-4.412 3.47-6.582 4.99-2.323 1.63-4.735 3.325-7.368 4.25-1.115.394-2.28.68-3.447.635-.52-.022-2.998-1.088-3.19-.982-6.282 3.428-6.743 5.37-13.44 4.158-6.346-1.146-11.588-.54-17.994-.447-3.82.054-7.6-.38-11.403-.606-1.753-.105-2.344.493-3.88 1.004-1.816.604-3.628-.576-5.335-1.004-1.092-.273-2.386-.57-3.542-.412-1.25.172-1.95-.105-3.17-.252-2.21-.266-4.253-.03-6.43.73-1.8.63-3.644.28-5.487.6-1.512.264-3.307.713-4.762.037-.933-.437-1.43-1.352-2.163-2.066-2.098-2.044-5.336-4.265-8.17-4.75-2.665-.454-5.27.24-7.938-.095-1.326-.164-2.605.324-3.903.18-1.12-.127-2.08-1.176-3.195-1.313-1.172-.144-2.264.315-3.365.117-2.672-.484-5.438-1.47-8.078-.982-1.188.22-2.376-.075-3.513.132-1.106.2-2.087.758-3.182.963-1.34.25-2.474 1.03-3.77 1.406-.974.28-1.97.234-2.943.548-3.073.99-5.823 2.695-9.034 3.224-2.184.358-4.624.66-6.81.64-.932-.007-1.52-.32-2.414-.537-1.05-.254-2.508-.294-3.54.14-1.344.567-2.18 1.282-3.67 1.397-.924.07-.832.097-1.63.413-.637.252-1.188.207-1.8.275-.48.054-1.013.215-1.52.287-.883.128-1.912-.045-2.763.14-1.406.31-2.41 1.23-3.942 1.23-1.708 0-2.273.797-3.725 1.64-1.966 1.145-4.036.887-6.11 1.126-.84.097-1.207.278-1.873.885-1.043.948-1.438 1.312-2.717 1.792-1.102.414-1.8 1.725-2.988 2.2-.576.91-.437 1.253-1.51 1.915-.836.516-1.326 1.066-2.048 1.788-.657.658-1.233 1.35-2.07 1.78-.905.46-2.15.374-3.028.996-.968.685-1.222 1.975-1.98 2.763-.572.594-1.68.65-2.406.905-1.645.577-2.982 1.984-4.63 2.506-1.223.388-2.267.182-3.42.933-1.446.94-2.2 1.873-3.976 1.883-1.47.01-2.893-.496-4.375-.377-.94.076-1.875.558-2.934.523-1.302-.042-2.405-.79-3.66-.873-1.163-.078-2.502.942-3.57.365-.542-.295-.78-.906-1.278-1.19-.62-.353-1.42-.612-2.135-.5-1.156.18-1.658.503-2.89.336-.944-.13-2.43-.685-3.185-.682l-.053-.046c-1.13 1.086-2.766.138-4 .016-2.54-.252-5.004-1.166-7.416-1.992-2.17-.742-3.675-1.89-5.657-3.06-1.244-.732-2.27-1.052-3.342-2.395-1.104-1.39-1.51-2.002-3.147-2.81-1.103-.546-2.357-.364-3.41-.953-1.214-.68-1.64-2.194-2.572-3.26-.81-.923-2.203-1.22-3.348-1.664-2.9-1.124-6.145-2.055-8.92-3.444-2.755-1.38-5.62-2.108-8.53-3.146-4.59-1.635-8.723-4.362-13.037-6.648-2.1-1.11-4.408-2.414-6.726-2.92-1.54-.335-3.892-.21-4.822-1.93-1.325.403-3.41-.494-4.7-.882-1.68-.507-2.718-2.127-4.332-2.683-2.33-.803-5.17-.343-6.933-2.26-.633-.692-.422-.522-1.294-.902-.59-.256-1.235-.47-1.802-.765-.57-.298-.942-.432-1.452-.706-.505-.27-1.127-.812-1.625-1.034-.676-.303-1.75.062-2.61.178-1.174.158-2.284.078-3.567.212-1.25.13-1.276-.69-2.158-.894-.723-.166-1.473.05-2.23-.086-2.198-.398-4.302-1.078-6.517-1.45-1.638-.272-2.218-.954-3.478-1.4-1.73-.61-3.502.14-5.286-.334-1.358-.362-2.272-1.822-3.964-1.825-1.295-.003-2.492 1.524-3.757 1.38-.894-.1-1.152-1.03-1.75-1.172-1.022-.238-.982.146-1.944.215-3.206.223-5.772.44-8.974.074-.19-.02-22.016-1.635-36.368-2.546v367.282c92.13.07 730.113-.14 784.41-.037V76.1z"/></svg>