<svg xmlns="http://www.w3.org/2000/svg" width="700" height="500" viewBox="0 0 700 500"><path fill="#560B00" d="M689.07 216c-7.576-6.465-16.178-16.792-24.28-14.148-.54-.954-.75-1.592-1.386-2.054-.03.227-.018.42.012.596-.064-.147-.12-.307-.193-.444.19 1.14.434 2.242.734 3.304l-10.666-14.658c-7.04 2.457-14.49 6.225-21.218 6.04-6.555-.182-12.09-2.328-18.6-3.597-9-1.76-18.535 2.67-27.512 2.38-8.473-.273-15.48-9.362-24.166-12.217-8.268-2.716-17.04-2.246-25.314-3.605-7.328-1.202-14.37-6.185-21.736-8.547-14.492-4.645-30.748-8.468-45.438-8.55-7.148-.04-13.744.156-20.717-.948-6.655-1.058-9.907 1.86-15.417 4.944-6.766 3.786-14.895 2.917-21.918 3.338-7.148.428-12.867 3.592-19.98 5.827-10.615 3.338-23.498 3.003-33.484-4.305-4.87-3.565-7.51-7.47-13.165-7.018-6.87.546-7.205 4.985-11.354 12.853-6.347 12.042-13.85 5.86-22.093 10.08-4.908 2.512-9.072 7.612-13.7 9.13-5.778 1.892-11.6-1.71-17.52-.918-2.03.27-3.77.946-5.33 1.902-6.07-.445-12.26-2.6-17.388-4.078-13.558-3.906-27.997-10.165-42.277-10.34-6.784-.084-13.405-1.2-20.24-.937-3.355.127-6.757.602-10.19 1.674-3.07.958-6.684 3.07-9.665 3.118-.085-.294-.202-.576-.273-.854-2.324 1.664-4.166 1.104-6.44 1.81-.888.276-1.532 1.083-2.432.904-1.714-.34-1.743-1.458-3.44-.845-3.316 1.2-6.738.978-10.04 3.34-1.353.968-2.397 2.702-3.767 3.278-1.904.8-4.287.11-6.107-.004-6.29-.4-12.526-3.298-18.903-2.847-2.332.163-4.004.386-6.216-.525-1.642-.676-3.908-2.075-5.818-.144-1.877 1.898-1.833 3.453-4.147 3.007-1.515-.29-3.052-.937-4.923.142-1.26.726-2.74 2.968-4.135 3.04-.924.047-1.697-.783-2.637-.884-.74-.08-1.738.438-2.502.398-1.567-.083-3.12.51-4.66.355-2.37-.233-3.503-3.33-5.375-4.092-1.02-.415-2.37.59-3.506.562-1.247-.034-2.014-1.35-3.143-1.728-.928-.312-1.73.086-2.594-.648-1.766-1.496-2.205-5.26-4.25-6.263-1.165-.572-2.176-1.51-3.467-1.603-3.284-.234-6.012-1.466-9.273-2.052-1.422-.257-2.21-1.673-3.457-2.108-1.68-.59-3.508 1.128-5.2 2.37-2.206 1.616-3.89 2.37-6.083 2.09-1.56-.198-2.864-.91-4.235-1.788-.923-.594-1.93-1.843-2.974-1.988-.765-.106-1.456.605-2.223.625-2.294.058-6.323-3.142-8.774.51-.615-1.196-1.607-.836-2.59-.338-.063-.264-.05-.506-.073-.815-3.817-.133-6.116-5.685-9.98-5.703-2.035-.01-3.984 1.11-6.082.79-2.473-.378-4.947 1.36-7.434 1.854-3.082.608-6.352-1.13-9.072-2.275-3.21-1.35-7.027-4.855-10.635-4.182-1.428.267-1.753.69-3.154-.06-1.4-.75-2.518.037-4.006.096-1.84.07-3.484-1.6-5.092-2.523-2.29-1.313-4.322-3.24-6.85-3.783-1.375-.295-2.76-.468-4.14-.63v357.86c198.93.178 654.145.56 727.235.058h57.174V216H689.07z"/></svg>