<svg xmlns="http://www.w3.org/2000/svg" width="700" height="242" viewBox="0 0 700 242"><path fill="#B22E13" d="M0 53.08c9.47 0 19.794 3.218 29.04 2.55 9.784-.71 13.878-5.564 23.033.594 6.187 4.16 13.505 3.95 18.776 9.658 10.14 10.98 26.583 11.215 39.26 7.252 4.56 2.835 18.89 6.84 23.366 3.604.04-.23-.045-.385-.252-.46 5.784.27 10.496 1.472 16.66 1.17 4.428-.214 11.62 3.9 15.53 1.118 3.74-.045 9.565-.44 12.51-1.59 3.777-1.473 13.448 2.354 17.503 3.01 6.108.99 12.25.543 18.502.55 9 .01 17.508-4.057 26.468-.67 4.85 1.834 7.567 2.29 12.116 2.29 5.597.004 8.442 4.173 12.814 5.732 12.51 4.467 23.634 4.084 35.048 12.404 7.745 5.645 14.344 11.098 24.077 11.63 6.1.333 12.653-.265 18.657-1.333 6.44-1.147 8.906 2.24 15.035 2.483 5.35.21 6.37.527 11.445 2.514 4.672 1.83 8.164.87 13.082 3.492 3.547 1.89 7.58 3.153 11.453 3.655 4.294.557 8.837-.89 13.057-1.59 3.12-.518 5.99.932 9.05.8 2.63-.114 5.877-.51 8.317-1.567 6.585-2.85 10.83-10.45 16.167-15.137 4.56-4.005 9.354-7.753 13.67-12.032 1.984-1.97 3.69-4.104 5.49-6.23 1.543-1.818 3.347-2.405 5.438-3.402 1.593-.76 2.828-1.778 4.374-2.712 2.233-1.35 5.165-.788 7.642-1.542 1.388-.423 2.904-1.092 4.19-1.79 1.33-.72 2.425-1.863 3.752-2.633 1.576-.915 2.844-.58 4.49-.987 1.62-.398 1.96-1.928 3.34-2.646 1.24-.648 2.707-.05 3.98-.623 1.21-.544 2.05-1.465 3.398-1.942 3.413-1.206 6.96-2.112 10.516-2.78 5.287-.99 9.765-1.182 15.15-.767 1.98.153 3.174 1.376 5.104 1.684 1.18.187 3.188-.647 4.23-.205.398.168.847 1.195 1.257 1.517 2.04 1.594 5.646 1.583 8.043 2.134 1.646.378 2.224.973 3.53 1.824 2.325 1.514 5.39 1.08 7.702 2.64 2.27 1.532 3.408 4.28 6.268 4.896 5.086 1.096 10.2 2.24 15.422 2.8 3.348.36 4.262 2.875 7.174 3.868 1.946.663 3.866-.728 6.06-.31 1.564.298 2.145 1.91 3.652 2.59 3.988 1.803 7.326 2.16 12.008 2.572 4.115.362 7.474 2.267 11.378 3.174 4.524 1.052 8.92 1.473 13.448.61 3.412-.65 5.693-.457 8.826.962 3.474 1.573 6.152 1.185 9.71.278 1.445-.37 2.056-.133 3.7.062 3.89.463 7.054-.947 10.844-.617 3.386.296 4.266 1.652 4.47 4.604.2 2.864 0 299.88 0 345.38-52.583 0-631.71 1.304-668.978 1.304V53.08z"/><path fill="#9D2006" d="M742.86 76.47c-4.036.554-14.442-4.284-18.884-4.907-4.785-.672-9.71-.152-14.52.35-2.262.236-4.578.68-6.844.555-2.113-.117-4.236-.7-6.365-.604-2.332.11-4.318 2.083-6.668 2.37-1.355.163-2.93-.137-4.276-.078-3.63.157-7.215 1.394-10.766.71-4.67-.9-9.156-2.39-13.77-3.52-1.405-.344-3.093-.932-4.55-.846-1.115.066-1.816.633-2.947.69-2.046.103-4.208-2.093-6.276-1.245-1.355.554-1.434 1.865-2.965 2.093-.577.087-1.16-.292-1.65-.22-.66.094-1.49.676-2.062.973-1.184-.454-3.707.935-5.19 1.118-1.858.23-3.466.787-5.245 1.182-1.598.354-2.967 1.463-4.535 1.77-1.9.376-2.832.398-4.64 1.372-1.364.734-2.847 1.117-4.255 1.732-3.578 1.562-6.912 3.752-10.184 5.99-6.67 4.557-13.337 9.353-21.23 10.443-5.434.752-10.822 1.936-16.23 2.928-2.712.497-5.433.957-8.163 1.29-1.094.134-2.795-.075-3.807.373-.832.37-1.04 1.26-1.86 1.647-.77.363-1.897-.124-2.646-.332-2.13-.594-3.188-1.096-5.3-.936-1.747.133-3.813-.445-5.622-.895-1.53-.38-3.914-1.746-5.465-.45-.002 0-1.957-.3-2.2-.28-1.013.084-1.995.484-2.985.707-1.69.38-3.268.243-4.947.395-5.262.48-10.14 3.977-15.467 3.216-1.285-.182-2.332-1.166-3.57-1.465.004-.09.047-.143.127-.158-3.14.617-5.55-1.7-8.803-.258-1.01.446-1.807 1.335-2.812 1.747-1.52.624-3.25.274-4.822.363-1.28.073-1.414-.082-2.617.51-.962.472-1.92 1.266-2.995 1.396-1.645.198-3.166-.9-4.783-.873-1.71.03-2.12 1.326-3.482 1.854-1.15.446-3.13-.11-4.328-.16-3.498-.145-6.342 2.135-9.7 2.455-3.438.33-6.495 1.697-9.91 2.266-2.722.45-5.44-.42-8.13-.557-1.926-.1-2.674-.78-4.242-1.59-1.4-.724-2.39-.593-3.854-.554-1.73.047-3.795-.39-5.51.114-.943.276-1.336.693-2.35.882-1.04.193-1.605.15-2.523.5-1.332.507-2.547 1.376-3.785 2.033-2.24 1.188-3.244-.457-5.303-.723-1.963-.255-4.172.078-5.7-1.514-1.33-1.383-1.72-2.648-3.528-3.613-3.594-1.912-8.34-3.16-11.965-.34-1.01.786-1.89 1.67-2.87 2.475-1.116.92-1.116 1.71-1.99 2.68-1.767 1.952-4.485 1.108-6.53 2.254-2.227 1.25-4.412 3.47-6.582 4.99-2.324 1.63-4.736 3.325-7.37 4.25-1.114.394-2.278.68-3.446.635-.52-.022-2.998-1.088-3.19-.982-6.282 3.428-6.743 5.37-13.44 4.158-6.346-1.146-11.588-.54-17.994-.447-3.82.054-7.602-.38-11.404-.606-1.753-.105-2.344.493-3.88 1.004-1.816.604-3.628-.576-5.335-1.004-1.09-.273-2.385-.57-3.54-.412-1.252.172-1.952-.105-3.17-.252-2.21-.266-4.254-.03-6.432.73-1.8.63-3.643.28-5.486.6-1.512.264-3.307.713-4.762.037-.934-.437-1.432-1.352-2.164-2.066-2.098-2.044-5.336-4.265-8.17-4.75-2.665-.454-5.27.24-7.938-.095-1.325-.164-2.604.324-3.902.18-1.12-.127-2.08-1.176-3.195-1.313-1.17-.144-2.263.315-3.364.117-2.672-.484-5.438-1.47-8.078-.982-1.187.22-2.375-.075-3.512.132-1.106.2-2.087.758-3.182.963-1.34.25-2.474 1.03-3.77 1.406-.974.28-1.97.234-2.943.548-3.072.99-5.822 2.695-9.033 3.224-2.184.358-4.624.66-6.81.64-.932-.007-1.52-.32-2.414-.537-1.05-.254-2.508-.294-3.54.14-1.344.567-2.18 1.282-3.67 1.397-.924.07-.832.097-1.63.413-.637.252-1.188.207-1.8.275-.48.054-1.013.215-1.52.287-.883.128-1.912-.045-2.763.14-1.407.31-2.412 1.23-3.943 1.23-1.708 0-2.273.797-3.725 1.64-1.966 1.145-4.036.887-6.11 1.126-.84.097-1.207.278-1.873.885-1.044.948-1.44 1.312-2.718 1.792-1.102.414-1.8 1.725-2.988 2.2-.576.91-.437 1.253-1.51 1.915-.836.516-1.326 1.066-2.048 1.788-.657.658-1.233 1.35-2.07 1.78-.905.46-2.15.374-3.028.996-.967.685-1.22 1.975-1.98 2.763-.57.594-1.68.65-2.405.905-1.645.577-2.982 1.984-4.63 2.506-1.223.388-2.267.182-3.42.933-1.446.94-2.2 1.873-3.976 1.883-1.47.01-2.893-.496-4.375-.377-.94.076-1.875.558-2.934.523-1.3-.042-2.404-.79-3.658-.873-1.164-.078-2.503.942-3.57.365-.543-.295-.78-.906-1.28-1.19-.62-.353-1.42-.612-2.134-.5-1.156.18-1.658.503-2.89.336-.944-.13-2.43-.685-3.185-.682l-.052-.046c-1.128 1.086-2.765.138-3.998.016-2.54-.252-5.005-1.166-7.417-1.992-2.17-.742-3.675-1.89-5.657-3.06-1.244-.732-2.27-1.052-3.342-2.395-1.104-1.39-1.51-2.002-3.147-2.81-1.103-.546-2.357-.364-3.41-.953-1.214-.68-1.64-2.194-2.572-3.26-.81-.923-2.203-1.22-3.348-1.664-2.9-1.124-6.145-2.055-8.92-3.444-2.755-1.38-5.62-2.108-8.53-3.146-4.59-1.635-8.723-4.362-13.037-6.648-2.102-1.11-4.41-2.414-6.727-2.92-1.54-.335-3.892-.21-4.822-1.93-1.324.403-3.41-.494-4.698-.882-1.68-.507-2.72-2.127-4.333-2.683-2.33-.803-5.17-.343-6.934-2.26-.633-.692-.422-.522-1.294-.902-.59-.256-1.235-.47-1.802-.765-.572-.298-.943-.432-1.453-.706-.505-.27-1.127-.812-1.625-1.034-.676-.303-1.75.062-2.61.178-1.174.158-2.284.078-3.567.212-1.25.13-1.276-.69-2.158-.894-.723-.166-1.473.05-2.23-.086-2.198-.398-4.302-1.078-6.517-1.45-1.64-.272-2.22-.954-3.48-1.4-1.728-.61-3.5.14-5.285-.334-1.358-.362-2.272-1.822-3.964-1.825-1.294-.003-2.49 1.524-3.756 1.38-.894-.1-1.152-1.03-1.75-1.172-1.022-.238-.982.146-1.944.215-3.207.223-5.773.44-8.975.074-.31-.035-57.684-4.27-47.434-2.873V464.68c.53.133 799.106-.148 799.16 0V76.47z"/><path fill="#881700" d="M502.05 179.04c-4.925-.2-11.07-2.79-16.05-3.74-10.592-2.017-14.598-5.17-22.258-12.656-3.633-3.548-8.594-3.898-13.18-4.977-4.625-1.086-8.27-4.17-12.916-5.1-2.465-.495-5.406-1.574-7.184-3.093-2.047-1.75-4.596-2.26-6.736-3.527-1.152-.684-2.236-1.577-3.6-2.08-2.557-.947-4.037-2.692-6.617-3.736-3.325-1.346-6.804-2.333-10.372-2.57-2.312-.15-4.855-.063-7.076.777-.84.317-1.523.94-2.334 1.265-1.03.412-2.23.167-3.182.823-1.87 1.29-.81 1.372-3.154.906-1.03-.204-1.904.253-3.037.24-1.373-.014-2.762-.535-4.05-.99-1.005-.357-1.552-.72-2.407-1.426-1.26-1.036-1.793-.605-3.373-1.105-1.326-.42-2.44-1.45-3.91-1.706-2.764-.482-5.057-2.186-7.8-2.422-3.575-.306-7.65.416-10.897-1.53-2.725-1.634-4.695-5.003-7.357-6.937-2.36-1.715-4.936-3.643-7.462-5.016-2.732-1.486-6.11-.602-8.728-2.45-1.896-.086-3.434-1.307-5.465-1.408-2.535-.124-5.113-.1-7.604.418-.878.185-1.104.365-1.87.803-1.865 1.066-2.72.902-4.773.996-3.198.145-5.747 2.91-8.876 3.122-1.203.08-2.28-.333-3.505-.143-1.713.267-3.456.983-5.132 1.463-3.558 1.02-6.89 1.51-10.534 1.86-3.085.297-5.706 2.337-8.77 2.62-2.476.228-4.87.478-7.308.524-3.04.06-6.648 1.894-9.47 3.12-3.218 1.397-7.07 1.047-10.334 2.428-2.865 1.212-6.256 3.187-9.404 2.915-1.202-.104-2.093-.84-3.235-1.104-1.742-.402-3.73.207-5.453.568-2.27.477-4.636.703-6.942.773-2.172.065-3.94-.418-5.982.774-1.95 1.14-2.98 1.23-5.138 1.105-2-.113-3.69.256-5.35 1.5-1.007.756-1.063 1.035-2.278 1.076-1.45.052-2.304.507-3.648.843-3.212.8-5.85-.633-8.963-.437-1.22.077-2.254 1.15-3.503 1.313-1.582.205-3.217.53-4.823.753-1.002.14-2.178-.164-3.19-.29-.475-.062-.975-.308-1.437-.34-2.273-.153-3.943 1.255-6.173 1.454-2.042.182-4.14-.13-6.152.566-.688.237-1.177.914-1.975 1.035-.92.14-1.606-.426-2.59-.13-.995.3-1.433.93-2.515.91-.703-.01-1.402-.41-2.084-.52-1.868-.31-3.08.914-4.922.587-1.29-.23-1.808-.68-3.068.003-.6.324-.97 1.102-1.568 1.463-1.09.66-3 1.464-4.37 1.562-1.412.102-2.71-.784-4.083-.213-3.688 1.533-5.28 5.76-9.502 6.424-4.95.777-9.976.25-14.91 1.137-6.94 1.25-14.03 2.965-21.105 3.896-8.738 1.146-15.75-2.2-24.227-2.14-1.56.01-1.088.753-1.767 1.52-3.965-.303-7.955.36-11.926.168-4.31-.21-6.944-2.87-10.898-3.916-1.11-.295-1.97.274-3.15.237-2.064-.065-4.933-1.193-6.835-1.786-2.52-.786-5.473-.67-7.88-2.24-1-.65-1.894-1.24-3.034-1.93-1.25-.755-1.637-1.226-3.135-1.322-1.28-.08-1.925.008-3.17-.69-4.536-2.534-9.425-6.79-11.897-11.64-1.064-2.09-2.154-3.897-4.092-5.208-1.31-.887-2.82-1.257-4.214-1.95-1.52-.753-2.398-1.887-3.65-2.946-2.67-2.26-6.297-4.645-9.734-5.063-3.352-.408-6.51-2.893-9.04-5.32-3.05-2.927-6.954-4.37-10.723-5.96-4.522-1.91-9.135-3.587-13.85-4.876-9.443-2.583-10.665 1.428-10.665 8.35v385.29h565.573c.52 1.46 0-320.953 0-320.953z"/><path fill="#701300" d="M737.21 77.582c-7.458 5.337-18.454 5.695-26.606 6.488-13.82 1.347-29.027 1.21-42.664 5.578-6.48 2.073-13.043 3.325-19.49 5.674-3.164 1.152-6.29 2.58-9.31 4.463-2.698 1.684-5.645 4.402-8.472 5.377-.15-.192-.328-.368-.46-.553-1.825 1.978-3.71 2.138-5.708 3.38-.78.488-1.207 1.295-2.105 1.445-1.71.285-2-.543-3.473.45-2.877 1.942-6.186 2.855-8.78 5.663-1.06 1.15-1.65 2.775-2.82 3.64-1.624 1.198-4.054 1.433-5.813 1.92-6.08 1.68-12.696 1.476-18.663 3.822-2.182.857-3.72 1.55-6.04 1.565-1.722.01-4.206-.322-5.573 1.725-1.344 2.012-.94 3.162-3.246 3.557-1.51.258-3.125.26-4.654 1.654-1.03.942-1.916 3.087-3.227 3.58-.87.327-1.8-.052-2.717.17-.723.17-1.553.874-2.29 1.085-1.51.432-2.853 1.363-4.35 1.734-2.313.568-4.116-1.39-6.075-1.372-1.07.012-2.12 1.19-3.207 1.525-1.195.367-2.232-.375-3.396-.303-.955.06-1.625.607-2.62.332-2.03-.564-3.327-3.24-5.51-3.35-1.243-.062-2.425-.444-3.675-.107-3.182.86-6.066.795-9.31 1.385-1.413.256-2.493-.555-3.782-.488-1.738.088-3.076 1.95-4.396 3.41-1.724 1.906-3.15 3-5.304 3.48-1.533.344-2.94.22-4.45-.003-1.02-.154-2.267-.772-3.296-.553-.754.162-1.246.912-1.97 1.168-2.173.766-6.755-.357-8.235 3.146-.865-.7-1.727-.118-2.547.564-.12-.176-.164-.362-.258-.586-3.666 1.103-7.15-2.328-10.832-1.125-1.94.635-3.535 2.086-5.607 2.506-2.442.495-4.392 2.575-6.644 3.728-2.79 1.426-6.31 1.156-9.168 1.155-3.37 0-7.824-1.42-11.102.22-1.297.648-1.508 1.068-3.018.947-1.508-.12-2.39.822-3.79 1.335-1.933.706-3.827-.304-5.77-.278-1.253.017-2.226.617-3.41.91-3.763.935-7.67-1.122-11.49-.623-1.84.24-3.087.626-4.91.162-1.476-.375-3.66-.094-4.88-.995-.65.438-1.74.487-2.525.716-1.268.368-2.52.763-3.85.78-.977.012-1.566-.32-2.463-.53-1.164-.274-1.38-.028-2.41.656-1.883 1.25-3.912 1.26-5.965 1.774-2.018.503-4.594 1.34-6.672.618-2.023-.7-3.19-3.187-4.95-4.342-1.64-1.077-3.854-.534-5.66-1.21-1.558-.585-2.88-.283-4.513-.342-3.443-.123-6.635-1.05-10.145-.875-1.342.066-2.54-.275-3.816-.215-1.737.082-3.378 1.178-5.158.836-1.534-.294-2.24-.412-3.653.5-1.655 1.07-3.058 2.115-4.116 3.748-.967 1.49-1.754 3.705-3.104 4.888-.746.654-1.576 1.112-2.14 1.95-.62.922-.776 2.098-1.52 2.948-1.24 1.415-3.517 2.794-5.177 3.595-1.167.562-2.535.65-3.535 1.524-1.256 1.095-1.248 2.87-2.126 4.225-.796 1.23-2.106 2.042-2.804 3.335-.768 1.425-.99 3.392-1.19 4.986-.413 3.278-.752 6.042 0 9.13.822 3.384 0 248.6 0 276.626 103.704 0 356.704.992 422.6.992V77.582z"/><path fill="#560B00" d="M691.822 519.092c.953-3.65-1.27-297.866 0-300.907-8.2-5.905-17.932-19.303-27.03-16.333-.542-.954-.75-1.592-1.388-2.054-.03.227-.018.42.012.596-.064-.147-.12-.307-.193-.444.19 1.14.434 2.242.734 3.304l-10.666-14.658c-7.04 2.457-14.49 6.225-21.218 6.04-6.555-.182-12.09-2.328-18.6-3.597-9-1.76-18.535 2.67-27.512 2.38-8.473-.273-15.48-9.362-24.166-12.217-8.268-2.716-17.04-2.246-25.314-3.605-7.328-1.202-14.37-6.185-21.736-8.547-14.492-4.645-30.748-8.468-45.438-8.55-7.148-.04-13.744.156-20.717-.948-6.655-1.058-9.907 1.86-15.417 4.944-6.766 3.786-14.895 2.917-21.918 3.338-7.148.428-12.867 3.592-19.98 5.827-10.615 3.338-23.498 3.003-33.484-4.305-4.87-3.565-7.51-7.47-13.165-7.018-6.87.546-7.205 4.985-11.354 12.853-6.347 12.042-13.85 5.86-22.093 10.08-4.908 2.512-9.072 7.612-13.7 9.13-5.778 1.892-11.6-1.71-17.52-.918-2.03.27-3.77.946-5.33 1.902-6.07-.445-12.26-2.6-17.388-4.078-13.558-3.906-27.997-10.165-42.277-10.34-6.784-.084-13.405-1.2-20.24-.937-3.355.127-6.757.602-10.19 1.674-3.07.958-6.684 3.07-9.665 3.118-.085-.294-.202-.576-.273-.854-2.324 1.664-4.166 1.104-6.44 1.81-.888.276-1.532 1.083-2.432.904-1.714-.34-1.743-1.458-3.44-.845-3.316 1.2-6.738.978-10.04 3.34-1.353.968-2.397 2.702-3.767 3.278-1.904.8-4.287.11-6.107-.004-6.29-.4-12.526-3.298-18.903-2.847-2.332.163-4.004.386-6.216-.525-1.642-.676-3.908-2.075-5.818-.144-1.877 1.898-1.833 3.453-4.147 3.007-1.515-.29-3.052-.937-4.923.142-1.26.726-2.74 2.968-4.135 3.04-.924.047-1.697-.783-2.637-.884-.74-.08-1.738.438-2.502.398-1.567-.083-3.12.51-4.66.355-2.37-.233-3.503-3.33-5.375-4.092-1.02-.415-2.37.59-3.506.562-1.247-.034-2.014-1.35-3.143-1.728-.928-.312-1.73.086-2.594-.648-1.766-1.496-2.205-5.26-4.25-6.263-1.165-.572-2.176-1.51-3.467-1.603-3.284-.234-6.012-1.466-9.273-2.052-1.422-.257-2.21-1.673-3.457-2.108-1.68-.59-3.508 1.128-5.2 2.37-2.206 1.616-3.89 2.37-6.083 2.09-1.56-.198-2.864-.91-4.235-1.788-.923-.594-1.93-1.843-2.974-1.988-.765-.106-1.456.605-2.223.625-2.294.058-6.323-3.142-8.774.51-.615-1.196-1.607-.836-2.59-.338-.063-.264-.05-.506-.073-.815-3.817-.133-6.116-5.685-9.98-5.703-2.035-.01-3.984 1.11-6.082.79-2.473-.378-4.947 1.36-7.434 1.854-3.082.608-6.352-1.13-9.072-2.275-3.21-1.35-7.027-4.855-10.635-4.182-1.428.267-1.753.69-3.154-.06-1.4-.75-2.518.037-4.006.096-1.84.07-3.484-1.6-5.092-2.523-2.29-1.313-4.322-3.24-6.85-3.783-3.954-.85-7.974-.693-11.82-2.156-4.072-1.55-7.94-3.788-11.92-5.652-4.78-2.24-12.433.746-16.348-2.98-3.094-2.947-3.74-11.054-7.558-12.43-6.04-2.172-12.586 3.65-17.38-3.368-3.882-5.685-4.2-13.5-11.243-8.926-5.574 3.62-10.168 12.4-15.982 16.03-5.075 3.165-3.522 1.954-3.522 13.006v363.633c35.1 0 815.207.858 828.69 0z"/><path fill="#3B0800" d="M456.107 211.218c-.873.674-1.86 1.2-2.8 1.984-1.165.97-2.54 3.21-3.836 3.28-.733.043-2.777-.942-3.565-1.283-2.622-1.14-5.22-2.373-7.615-4.22-1.682-1.293-1.99-1.01-3.834-1.048-1.358-.03-2.532-.726-3.82-.635-1.047.072-1.433.277-2.488-.29-2.506-1.344-5.44-1.746-8.27-2.135-3.225-.44-5.703-1.853-8.508-3.983-3.353-2.547-6.697-3.994-10.4-5.144-3.395-1.054-7.168-2.396-9.436-6.394-3.44-6.07-6.348-13.477-11.123-18.022-4.103-3.902-9.09-5.55-13.285-9.325-3.936-3.54-7.366-8.552-12.16-9.716-5.585-1.356-11.455.47-16.966-1.647-5.93-2.277-9.237-8.034-14.336-12.175-3.73-3.026-7.77-4.23-11.703-6.583-4.046-2.416-8.155-4.842-11.424-7.61-3.12-2.64-5.16-6.776-8.113-9.57-5.395-5.106-12.82-1.108-18.863-2.063-5.643-.892-11.954-1.928-16.928 1.594-2.203 1.56-4.7 1.912-6.972 3.19-1.874 1.058-1.306 3.316-3.688 3.84-1.293.284-2.627.29-3.906.63-1.092.287-2.494 1.014-3.518 1.145-.53.07-1.102-.342-1.576-.238-.484.104-.943.73-1.333.992-1.02.684-1.973 1.37-3.246 1.404-.324 1.062-1.48 2.915-2.58 3.548-1.493.858-3.216.604-4.873.85-2.705.404-4.827 3.23-7.446 4.02-.515 1.454-4.71 2.22-6.17 2.655-1.162.346-2.263.743-3.45.534-1.202-.21-2.14-.88-3.276-.997-1.438-.148-3.12-.19-4.524.214-1.64.475-2.847 1.72-4.378 2.24-1.584.538-3.27.063-4.625.896-1.205.74-1.73 1.503-3.124 1.947-.964.31-2.128.672-2.988 1.16-1.023.58-1.658 1.555-2.543 2.25-2.12 1.66-5.63 1.038-8.046.376-1.16-.32-2.35-1.118-3.537-1.232-1.348-.13-2.288.867-3.572 1.01-2.497.277-5.616.09-8.042-.56-1.44-.387-2.627-.935-4.113-.7-1.35.214-2.717.215-4.033.35-1.605.168-3.088.094-4.655-.087-1.023-.118-2.42.215-3.39-.306-3.227 1.082-6.436.777-9.928 1.153-.88.095-1.866.703-2.778.51-.53-.11-.892-.7-1.408-.807-.602-.12-.652.113-1.213.21-1.85.317-3.57.324-5.424.14-6.43-.646-13.2 1.42-18.806.98-6.143-.486-10.094-4.605-17.023-3.84-5.162.568-8.654 3.74-14 4.044-3.98.225-7.607-1.43-11.514-1.47-3.587-.038-6.645-1.235-10.117-2.088-2.533-.622-4.032-.25-6.615.303-1.21.257-2.203-.143-3.375-.38-1.603-.318-2.45 0-3.978.572-2.68 1-4.927.385-7.613.634-1.38.127-2.475.242-3.912-.045-1.354-.27-2.127-.502-2.902-1.416-1.266-1.493-3.045-2.01-5.123-2.396-2.823-.524-5.738.663-8.44.786-1.22.056-1.743-.586-2.933-.17-1.393.487-2.29 1.65-3.337 2.694-.022 2.105-2.33 1.823-3.496 2.9-.12.11-.057.485-.178.607-.152.15-.467.315-.607.47-.28.312-.585.58-.86.917-.75.912-1.06 1.878-2.095 2.562-1.178.78-2.67 1.134-3.874 1.896-1.073.678-1.765 1.667-3.056 1.86-1.296.195-2.644-.175-3.973.096-1.6.325-2.586-.713-4.223-.597-1.316.093-2.175.693-3.616.504-.987-.13-1.767-.297-2.72-.006-.874.27-1.42.7-2.316.768-1.222.093-2.217-.85-3.372-.737-1.08.104-1.653 1.16-2.61 1.506-.637.23-1.45.154-2.135.294-1.312.266-2.596.69-3.827 1.22-2.612 1.12-31.153 1.81-31.153 4.655v30.998c0 11.02.365 21.665 0 32.73-.328 9.925 0 261.46 0 277.317h771.29c0-55.356.538-351.15 0-364.61-.4-10.02-5.58-14.47-11.654-17.833-3.996-2.212-7.747-1.51-11.714.34-1.7.795-3.48 1.98-5.21 2.533-1.734.554-4.06-.66-5.46 1.297-1.105-.105-2.264.717-3.257.302-.882 1.114-2.208 1.095-3.417 1.212-1.464.144-1.912 1.36-3.075 1.502-1.78.217-2.313-1.686-4.21-.476-2.57 1.644-4.13 2.717-6.896 3.032-3.15.357-5.987 2.295-9.234 1.868-2.277-.3-4.383 1.26-6.33 2.693-.965.71-1.99 1.78-3.044 2.198-1.173.466-1.892-.633-2.97-.178-1.056.443-1.412 2.524-2.487 2.975-1.205.504-2.76-.526-4.037-.534-.99-.005-2.714 1.582-3.342.897-1.84 2.558-3.896 1.215-6.096 1.335-1.902.104-3.812.107-5.68.69-1.475.46-2.783 1.453-4.307 1.914-3.114.946-6.162 3.887-9.08 5.766-3.333 2.148-6.836 3.746-10.455 4.63-1.56.38-3.105 1.303-4.675 1.683-2.17.525-2.34-.352-3.83 2.272-.778 1.373-1.99 2.81-3.328 2.872-.714.033-1.497-.83-2.175-.91-.792-.092-1.416.35-2.153.6-1.545.525-3.114.663-4.626 1.213-1.655.603-3.057 1.632-4.726 1.926-1.688.3-3.475-.01-5.188.228-2.486.346-4.845 1.847-6.975 2.803-3.563 1.6-7.668 3.447-11.435 3.588-2.062.078-3.98-1.958-6.062-1.5-1.627.358-2.87 2.127-4.49 2.24-2.162.15-4.123-.83-6.348-.26-1.733.447-3.55.88-5.34 1.222-1.37.263-2.55.668-3.825 1.586-1.554 1.12-2.802 1.69-4.497 2.5-1.565.75-2.16 2.12-3.8 2.743-1.187.448-2.395.97-3.667 1.63-2.246 1.166-4.142 2.47-6.536 2.502-2.273.03-3.983 1.298-6.053 2.535-1.533.915-3.205 1.812-4.826 2.332-1.38.444-2.94.132-4.27.84-.598.318-2.047.775-2.48 1.386-.648.918-.538 2.342-1.057 3.354-.67 1.31-1.95 1.896-2.586 3.37-.66.517-1.215.993-1.877 1.504-1.648 1.267-1.724 1.034-1.692 3.798.035 2.916-.47 3.843-2.03 5.768-.35.426-.74.778-1.153 1.098z"/><path fill="#1E0400" d="M739.337 621.52c-.414-11.797 0-366.668 0-382.404V210.49v-24.595-56.617c-11.836-.007-23.215-25.36-34.167-25.687.518.197-1.006-.28-1.92-.986-7.306-5.602-17.55 1.78-26.06 1.07-8.28-.688-15.097 6.87-23.31 11.144-6.052 3.148-10.383 9.1-17.056 11.135-5.382 1.645-10.074 3.484-14.768 7.108-6.7 5.176-13.024 4.042-18.72 7.737-4.837 3.14-11.254 5.89-12.502 7.417-11.774 15.63-30.122 9.46-43.997 12.296-5.43 1.108-7.49 3.008-12.803 9.643-4.958 6.197-9.964 12.41-15.296 16.053-5.908 4.035-11.822 8.04-17.755 11.932-2.172 1.424-2.97 2.34-4.537 5.148-1.704 3.053-3.696 2.038-5.798 3.068-1.74.848-3.487.39-4.96 1.628-3.775 3.184-8.165 8.617-12.264 9.614-3.96.965-7.722 1.64-11.654 3.6-.588.294-1.375.42-1.916.944-.15.145-.976 1.523-.994 1.532-.97.42-1.55-.994-2.646-1.27-1.243-.31-.56.09-1.402.925-1.103 1.096-2.274 2.406-3.663.845-.724.91-1.562 2.692-2.334 2.432-.817 2.998-2.5 2.096-3.93 3.154-3.933 2.916-7.932 6.547-12.122 4.928-2.105-.814-3.274.14-5.238 1.338-2.19 1.336-4.57 1.462-6.84 1.9-3.703.71-7.43.02-11.14.417-3.26.352-6.322 1.676-9.6.63-6.77-2.16-12.52-10.594-19.064-14.2-1.38-.762-2.236-.414-3.513-.306-1.64.14-2.854-1.11-4.42-1.887-1.833-.91-3.752-1.337-5.61-2.124-2.315-.98-4.26-2.455-6.658-4.315-1.127-.874-2.47-1.293-3.63-2.36-.842-.772-1.454-1.722-2.165-2.857-.79-1.256-.76-1.234-1.535-2.02-3.102-3.148-6.634-5.395-9.5-9.063-3.117-3.992-6.204-8.757-9.855-10.698-6.004-3.192-11.154-1.425-16.907 2.246-4.92 3.14-8.19 4.448-13.185.414-3.16-2.552-5.847-7-9.178-8.755-3.95-2.082-8.104-.258-12.04-2.504-2.27-1.293-4.25-5.032-6.52-6.065-4.717-2.148-10 2.218-15.965-1.116-7.232-4.044-14.17-9.22-21.514-12.605-5.203-2.396-11.627-3.282-16.672-8.533-6.277-6.536-7.57-19.547-14.4-26.13-12.577-2.805-25.094-14.25-36.412-26.625-5.365-5.867-11.83-11.46-17.183-18.56-3.707-4.918-8.212-14.825-12.784-17.566-5.088-3.05-11.68-3.34-17.056-5.656-7.856-3.386-17.333-5.444-25.495-4.27-10.568 1.518-23.79 19.79-33.33 28.168C56.404 89.44 47.8 102 39.538 113.742c-4.255 6.048-7.665 9.304-12.153 12.504-7.38 5.263-7.163 11.943-12.185 22.876-8.278 18.02-22.13 13.174-31.884 22.534-8.924 8.56-21.88 13.327-28.554 27.804.175 3.32-.232 7.278 0 10.642V621.522h784.573z"/><path fill="#00403F" d="M511 83.5c.038 0 .038-5 0-5s-.038 5 0 5z"/></svg>