<?xml version="1.0" encoding="utf-8"?>
<!-- Generator: Adobe Illustrator 16.0.0, SVG Export Plug-In . SVG Version: 6.00 Build 0)  -->
<!DOCTYPE svg PUBLIC "-//W3C//DTD SVG 1.1//EN" "http://www.w3.org/Graphics/SVG/1.1/DTD/svg11.dtd">
<svg version="1.1" id="_x31_" xmlns="http://www.w3.org/2000/svg" xmlns:xlink="http://www.w3.org/1999/xlink" x="0px" y="0px"
	 width="700px" height="242px" viewBox="0 0 700 242" enable-background="new 0 0 700 242" xml:space="preserve">
<path fill="#B22E13" d="M0,53.079c9.471,0,19.794,3.219,29.041,2.55c9.783-0.708,13.877-5.563,23.032,0.595
	c6.187,4.161,13.505,3.951,18.776,9.658c10.142,10.981,26.584,11.215,39.262,7.252c4.56,2.835,18.888,6.841,23.365,3.604
	c0.039-0.23-0.045-0.385-0.252-0.46c5.784,0.269,10.496,1.472,16.66,1.171c4.428-0.215,11.619,3.899,15.529,1.117
	c3.74-0.045,9.566-0.439,12.512-1.589c3.776-1.474,13.447,2.353,17.502,3.009c6.108,0.989,12.251,0.543,18.502,0.55
	c9.002,0.01,17.509-4.057,26.469-0.669c4.849,1.833,7.567,2.288,12.116,2.289c5.597,0.004,8.442,4.173,12.814,5.732
	c12.51,4.467,23.634,4.084,35.048,12.404c7.745,5.645,14.344,11.098,24.077,11.629c6.099,0.334,12.653-0.264,18.657-1.332
	c6.44-1.146,8.906,2.241,15.035,2.484c5.35,0.211,6.371,0.527,11.445,2.514c4.672,1.83,8.164,0.869,13.082,3.492
	c3.547,1.89,7.58,3.154,11.453,3.656c4.294,0.557,8.837-0.889,13.057-1.59c3.12-0.518,5.989,0.932,9.049,0.799
	c2.632-0.113,5.878-0.51,8.318-1.566c6.586-2.85,10.83-10.449,16.168-15.137c4.561-4.006,9.354-7.754,13.67-12.033
	c1.984-1.969,3.69-4.104,5.491-6.229c1.542-1.819,3.346-2.406,5.437-3.403c1.593-0.761,2.828-1.778,4.374-2.712
	c2.234-1.351,5.166-0.788,7.643-1.542c1.388-0.423,2.904-1.092,4.191-1.79c1.329-0.72,2.424-1.863,3.751-2.633
	c1.576-0.914,2.844-0.579,4.491-0.986c1.618-0.398,1.96-1.928,3.338-2.646c1.242-0.648,2.708-0.05,3.981-0.623
	c1.211-0.544,2.049-1.465,3.398-1.942c3.413-1.206,6.959-2.112,10.516-2.779c5.287-0.991,9.765-1.183,15.15-0.768
	c1.979,0.153,3.174,1.376,5.104,1.684c1.179,0.188,3.188-0.646,4.231-0.204c0.397,0.168,0.846,1.195,1.256,1.517
	c2.04,1.594,5.647,1.583,8.044,2.134c1.646,0.378,2.224,0.973,3.531,1.824c2.324,1.514,5.389,1.08,7.701,2.641
	c2.271,1.531,3.408,4.279,6.268,4.895c5.086,1.096,10.199,2.24,15.422,2.801c3.348,0.359,4.262,2.874,7.174,3.867
	c1.947,0.663,3.867-0.728,6.061-0.311c1.564,0.299,2.145,1.91,3.652,2.591c3.988,1.803,7.326,2.161,12.008,2.572
	c4.115,0.362,7.474,2.267,11.378,3.174c4.524,1.052,8.919,1.473,13.448,0.609c3.412-0.649,5.693-0.456,8.826,0.963
	c3.474,1.573,6.152,1.185,9.711,0.278c1.444-0.369,2.055-0.133,3.699,0.062c3.89,0.463,7.054-0.947,10.844-0.617
	c3.386,0.296,4.266,1.652,4.471,4.604c0.199,2.865,0,299.881,0,345.381c-52.584,0-631.711,1.304-668.979,1.304V53.079z"/>
<path fill="#9D2006" d="M742.859,76.47c-4.035,0.554-14.441-4.284-18.883-4.907c-4.785-0.672-9.709-0.152-14.52,0.35
	c-2.262,0.236-4.578,0.679-6.844,0.555c-2.113-0.117-4.236-0.701-6.365-0.604c-2.332,0.109-4.318,2.083-6.668,2.369
	c-1.354,0.164-2.93-0.136-4.275-0.077c-3.631,0.157-7.215,1.394-10.766,0.71c-4.67-0.9-9.156-2.389-13.771-3.52
	c-1.404-0.344-3.092-0.932-4.549-0.846c-1.115,0.066-1.816,0.633-2.947,0.69c-2.047,0.103-4.209-2.093-6.277-1.245
	c-1.355,0.554-1.434,1.865-2.965,2.093c-0.576,0.087-1.158-0.292-1.65-0.22c-0.658,0.094-1.49,0.676-2.061,0.973
	c-1.184-0.455-3.707,0.934-5.191,1.117c-1.857,0.229-3.465,0.787-5.244,1.182c-1.598,0.354-2.967,1.463-4.535,1.771
	c-1.9,0.375-2.832,0.397-4.641,1.371c-1.363,0.734-2.846,1.117-4.254,1.732c-3.578,1.562-6.912,3.752-10.184,5.989
	c-6.668,4.558-13.336,9.354-21.229,10.444c-5.434,0.752-10.822,1.936-16.229,2.928c-2.713,0.497-5.434,0.957-8.164,1.291
	c-1.094,0.133-2.795-0.076-3.807,0.372c-0.832,0.369-1.041,1.259-1.861,1.647c-0.77,0.363-1.896-0.124-2.645-0.332
	c-2.131-0.594-3.188-1.096-5.301-0.936c-1.746,0.133-3.812-0.445-5.621-0.895c-1.529-0.379-3.914-1.746-5.465-0.451
	c-0.002,0.001-1.957-0.299-2.201-0.279c-1.012,0.084-1.994,0.484-2.984,0.707c-1.689,0.38-3.268,0.244-4.947,0.396
	c-5.262,0.479-10.139,3.977-15.467,3.216c-1.285-0.183-2.332-1.167-3.57-1.466c0.004-0.09,0.047-0.143,0.127-0.158
	c-3.139,0.617-5.549-1.701-8.803-0.258c-1.01,0.447-1.807,1.336-2.812,1.748c-1.52,0.624-3.25,0.274-4.822,0.363
	c-1.279,0.073-1.414-0.082-2.617,0.51c-0.963,0.472-1.922,1.266-2.996,1.396c-1.645,0.198-3.166-0.9-4.783-0.873
	c-1.711,0.029-2.119,1.326-3.482,1.854c-1.15,0.446-3.131-0.111-4.328-0.16c-3.498-0.145-6.342,2.135-9.699,2.455
	c-3.439,0.33-6.496,1.697-9.912,2.266c-2.721,0.449-5.438-0.419-8.129-0.557c-1.926-0.1-2.674-0.781-4.242-1.591
	c-1.4-0.724-2.389-0.593-3.854-0.554c-1.73,0.047-3.795-0.391-5.51,0.114c-0.943,0.276-1.336,0.693-2.35,0.882
	c-1.039,0.193-1.605,0.151-2.523,0.5c-1.332,0.507-2.547,1.376-3.785,2.033c-2.24,1.188-3.244-0.457-5.303-0.723
	c-1.963-0.255-4.172,0.078-5.701-1.514c-1.33-1.383-1.719-2.648-3.527-3.613c-3.594-1.912-8.34-3.16-11.965-0.34
	c-1.01,0.786-1.891,1.67-2.871,2.475c-1.115,0.92-1.115,1.71-1.99,2.68c-1.766,1.952-4.484,1.108-6.529,2.254
	c-2.227,1.249-4.412,3.469-6.582,4.989c-2.324,1.631-4.736,3.326-7.369,4.252c-1.115,0.393-2.279,0.68-3.447,0.634
	c-0.521-0.021-2.998-1.087-3.191-0.981c-6.281,3.428-6.742,5.369-13.439,4.158c-6.346-1.146-11.588-0.541-17.994-0.447
	c-3.82,0.055-7.602-0.38-11.404-0.605c-1.753-0.105-2.344,0.493-3.879,1.004c-1.817,0.604-3.629-0.576-5.336-1.004
	c-1.092-0.273-2.386-0.57-3.542-0.412c-1.251,0.172-1.951-0.105-3.169-0.252c-2.21-0.266-4.254-0.031-6.432,0.73
	c-1.799,0.629-3.643,0.279-5.486,0.6c-1.512,0.264-3.307,0.713-4.762,0.037c-0.934-0.437-1.432-1.352-2.164-2.066
	c-2.098-2.045-5.336-4.266-8.17-4.75c-2.665-0.455-5.271,0.238-7.938-0.096c-1.325-0.164-2.604,0.324-3.902,0.179
	c-1.121-0.126-2.08-1.175-3.195-1.312c-1.172-0.144-2.264,0.315-3.365,0.117c-2.672-0.483-5.438-1.469-8.078-0.981
	c-1.187,0.22-2.375-0.075-3.512,0.132c-1.106,0.201-2.087,0.758-3.182,0.963c-1.34,0.251-2.474,1.031-3.77,1.406
	c-0.974,0.281-1.971,0.235-2.943,0.549c-3.073,0.991-5.823,2.695-9.034,3.224c-2.184,0.358-4.624,0.661-6.811,0.641
	c-0.931-0.008-1.519-0.32-2.413-0.538c-1.049-0.254-2.508-0.294-3.541,0.141c-1.343,0.566-2.18,1.281-3.668,1.396
	c-0.925,0.071-0.833,0.097-1.631,0.413c-0.637,0.252-1.188,0.207-1.799,0.275c-0.48,0.054-1.014,0.215-1.521,0.287
	c-0.883,0.128-1.912-0.045-2.763,0.141c-1.407,0.308-2.412,1.229-3.943,1.229c-1.708,0-2.273,0.797-3.725,1.64
	c-1.966,1.145-4.036,0.887-6.109,1.126c-0.84,0.097-1.208,0.278-1.874,0.885c-1.043,0.948-1.438,1.312-2.717,1.792
	c-1.102,0.414-1.799,1.725-2.988,2.199c-0.576,0.912-0.437,1.254-1.51,1.916c-0.836,0.516-1.326,1.066-2.048,1.788
	c-0.657,0.658-1.233,1.351-2.071,1.78c-0.904,0.461-2.15,0.374-3.027,0.996c-0.967,0.686-1.221,1.976-1.979,2.764
	c-0.572,0.594-1.68,0.65-2.406,0.905c-1.645,0.577-2.982,1.984-4.631,2.506c-1.222,0.388-2.266,0.182-3.42,0.933
	c-1.445,0.939-2.199,1.873-3.975,1.883c-1.471,0.01-2.893-0.496-4.375-0.377c-0.939,0.076-1.875,0.558-2.934,0.523
	c-1.301-0.042-2.404-0.789-3.658-0.873c-1.164-0.078-2.503,0.942-3.57,0.365c-0.543-0.295-0.781-0.906-1.279-1.189
	c-0.621-0.354-1.421-0.613-2.135-0.502c-1.156,0.182-1.658,0.504-2.889,0.337c-0.945-0.13-2.432-0.685-3.186-0.682
	c-0.018-0.016-0.035-0.031-0.053-0.046c-1.128,1.086-2.765,0.138-3.998,0.016c-2.541-0.252-5.005-1.166-7.417-1.992
	c-2.171-0.742-3.675-1.891-5.657-3.059c-1.244-0.733-2.271-1.053-3.342-2.396c-1.104-1.389-1.51-2.002-3.147-2.811
	c-1.103-0.545-2.357-0.363-3.411-0.952c-1.213-0.679-1.639-2.194-2.571-3.259c-0.81-0.924-2.203-1.221-3.348-1.665
	c-2.9-1.124-6.145-2.055-8.921-3.444c-2.754-1.381-5.619-2.108-8.53-3.146c-4.589-1.635-8.722-4.362-13.036-6.648
	c-2.102-1.111-4.409-2.414-6.727-2.92c-1.54-0.335-3.892-0.211-4.822-1.93c-1.325,0.403-3.41-0.494-4.699-0.882
	c-1.68-0.507-2.719-2.127-4.333-2.683c-2.329-0.803-5.169-0.343-6.933-2.261c-0.633-0.691-0.422-0.521-1.294-0.901
	c-0.589-0.256-1.235-0.469-1.802-0.765c-0.572-0.298-0.943-0.432-1.453-0.706c-0.505-0.271-1.127-0.812-1.625-1.034
	c-0.676-0.303-1.75,0.062-2.611,0.178c-1.173,0.158-2.283,0.078-3.566,0.212c-1.25,0.13-1.276-0.691-2.158-0.894
	c-0.723-0.166-1.473,0.051-2.229-0.086c-2.199-0.398-4.303-1.078-6.518-1.449c-1.639-0.273-2.219-0.955-3.479-1.4
	c-1.729-0.611-3.502,0.14-5.286-0.335c-1.358-0.362-2.272-1.822-3.964-1.825c-1.295-0.002-2.492,1.525-3.757,1.382
	c-0.894-0.102-1.152-1.032-1.75-1.173c-1.022-0.238-0.982,0.146-1.944,0.215c-3.207,0.223-5.773,0.439-8.975,0.074
	c-0.309-0.035-57.684-4.27-47.434-2.873c0,23.812,0,346.988,0,367.586c0.529,0.133,799.105-0.148,799.158,0
	C742.859,411.416,742.859,76.47,742.859,76.47z"/>
<path fill="#881700" d="M502.049,179.041c-4.924-0.201-11.07-2.792-16.049-3.74c-10.592-2.018-14.598-5.171-22.258-12.657
	c-3.633-3.548-8.594-3.898-13.18-4.977c-4.625-1.086-8.27-4.171-12.916-5.101c-2.465-0.494-5.406-1.573-7.184-3.092
	c-2.047-1.751-4.596-2.26-6.736-3.527c-1.152-0.684-2.236-1.577-3.6-2.081c-2.557-0.946-4.037-2.691-6.617-3.735
	c-3.324-1.347-6.803-2.334-10.371-2.57c-2.312-0.152-4.855-0.064-7.076,0.776c-0.84,0.317-1.523,0.94-2.334,1.265
	c-1.029,0.412-2.229,0.167-3.182,0.823c-1.871,1.291-0.809,1.372-3.154,0.906c-1.031-0.205-1.904,0.252-3.037,0.24
	c-1.373-0.015-2.762-0.536-4.051-0.992c-1.004-0.356-1.551-0.72-2.406-1.425c-1.26-1.036-1.793-0.605-3.373-1.105
	c-1.326-0.42-2.441-1.449-3.91-1.705c-2.764-0.482-5.057-2.186-7.801-2.422c-3.574-0.306-7.65,0.416-10.896-1.53
	c-2.725-1.634-4.695-5.003-7.357-6.937c-2.361-1.715-4.937-3.643-7.463-5.016c-2.732-1.485-6.111-0.601-8.728-2.449
	c-1.896-0.086-3.434-1.307-5.465-1.408c-2.535-0.124-5.113-0.101-7.604,0.418c-0.879,0.185-1.105,0.365-1.87,0.803
	c-1.866,1.066-2.722,0.902-4.774,0.996c-3.198,0.146-5.747,2.912-8.876,3.123c-1.204,0.08-2.281-0.333-3.506-0.143
	c-1.713,0.268-3.456,0.984-5.132,1.464c-3.558,1.019-6.891,1.509-10.534,1.86c-3.084,0.297-5.705,2.337-8.77,2.619
	c-2.475,0.229-4.868,0.479-7.307,0.525c-3.04,0.059-6.648,1.894-9.469,3.119c-3.219,1.398-7.072,1.048-10.335,2.429
	c-2.865,1.212-6.256,3.187-9.404,2.915c-1.202-0.104-2.093-0.839-3.235-1.104c-1.741-0.402-3.729,0.207-5.452,0.568
	c-2.271,0.477-4.636,0.703-6.942,0.773c-2.172,0.065-3.94-0.418-5.982,0.774c-1.951,1.139-2.979,1.228-5.138,1.104
	c-2.001-0.113-3.69,0.256-5.349,1.5c-1.008,0.756-1.064,1.035-2.279,1.076c-1.449,0.051-2.304,0.506-3.648,0.842
	c-3.211,0.801-5.85-0.633-8.962-0.437c-1.22,0.077-2.254,1.151-3.503,1.313c-1.582,0.206-3.217,0.531-4.823,0.754
	c-1.003,0.139-2.179-0.164-3.19-0.291c-0.476-0.061-0.976-0.307-1.438-0.338c-2.273-0.154-3.943,1.254-6.173,1.453
	c-2.042,0.182-4.139-0.129-6.152,0.566c-0.688,0.237-1.177,0.914-1.975,1.035c-0.919,0.139-1.606-0.426-2.589-0.131
	c-0.996,0.301-1.434,0.93-2.516,0.912c-0.703-0.011-1.402-0.41-2.084-0.522c-1.868-0.309-3.08,0.915-4.922,0.588
	c-1.29-0.229-1.808-0.681-3.068,0.003c-0.6,0.324-0.971,1.102-1.568,1.463c-1.09,0.659-3,1.463-4.37,1.561
	c-1.412,0.102-2.71-0.784-4.083-0.213c-3.688,1.534-5.279,5.762-9.502,6.425c-4.95,0.777-9.977,0.25-14.912,1.137
	c-6.939,1.248-14.029,2.964-21.104,3.895c-8.738,1.146-15.75-2.2-24.227-2.141c-1.559,0.01-1.088,0.754-1.767,1.521
	c-3.966-0.303-7.956,0.361-11.927,0.168c-4.31-0.211-6.944-2.87-10.898-3.916c-1.11-0.295-1.971,0.274-3.15,0.237
	c-2.064-0.065-4.933-1.193-6.835-1.786c-2.522-0.785-5.474-0.669-7.882-2.239c-0.998-0.65-1.893-1.239-3.033-1.931
	c-1.25-0.754-1.637-1.225-3.135-1.321c-1.281-0.08-1.926,0.008-3.17-0.689c-4.537-2.535-9.426-6.79-11.898-11.642
	c-1.064-2.09-2.154-3.896-4.092-5.207c-1.31-0.887-2.822-1.257-4.215-1.949c-1.519-0.754-2.398-1.888-3.65-2.947
	c-2.67-2.26-6.297-4.645-9.734-5.063c-3.352-0.409-6.51-2.894-9.039-5.321c-3.05-2.927-6.955-4.37-10.724-5.961
	c-4.521-1.908-9.134-3.586-13.848-4.875c-9.444-2.583-10.666,1.428-10.666,8.35c0,12.219,0,12.219,0,18.908
	c0,21.688,0,342.216,0,366.382c61.946,0,529.28,0,565.573,0C502.568,501.453,502.049,179.041,502.049,179.041z"/>
<path fill="#701300" d="M737.209,77.582c-7.457,5.337-18.453,5.695-26.605,6.488c-13.82,1.347-29.027,1.211-42.664,5.578
	c-6.479,2.073-13.043,3.325-19.49,5.674c-3.164,1.152-6.291,2.58-9.309,4.463c-2.699,1.684-5.646,4.402-8.473,5.377
	c-0.15-0.192-0.328-0.368-0.461-0.553c-1.824,1.979-3.709,2.139-5.707,3.382c-0.781,0.487-1.207,1.294-2.105,1.444
	c-1.711,0.285-2-0.543-3.473,0.451c-2.877,1.941-6.186,2.854-8.779,5.662c-1.061,1.149-1.65,2.775-2.82,3.639
	c-1.625,1.199-4.055,1.434-5.814,1.921c-6.08,1.681-12.695,1.476-18.662,3.822c-2.182,0.857-3.721,1.55-6.039,1.565
	c-1.723,0.011-4.207-0.322-5.574,1.725c-1.344,2.012-0.939,3.162-3.246,3.557c-1.51,0.258-3.125,0.26-4.654,1.654
	c-1.029,0.941-1.916,3.086-3.227,3.579c-0.869,0.327-1.799-0.052-2.717,0.169c-0.723,0.172-1.553,0.875-2.289,1.086
	c-1.512,0.432-2.854,1.363-4.352,1.734c-2.312,0.569-4.115-1.389-6.074-1.371c-1.07,0.012-2.119,1.189-3.207,1.525
	c-1.195,0.367-2.232-0.375-3.396-0.303c-0.955,0.059-1.625,0.607-2.619,0.332c-2.031-0.564-3.328-3.241-5.51-3.349
	c-1.244-0.063-2.426-0.445-3.676-0.108c-3.182,0.859-6.066,0.795-9.309,1.385c-1.414,0.256-2.494-0.555-3.783-0.488
	c-1.738,0.088-3.076,1.949-4.396,3.41c-1.723,1.906-3.15,3-5.303,3.48c-1.533,0.344-2.941,0.221-4.451-0.003
	c-1.018-0.153-2.266-0.771-3.295-0.552c-0.754,0.162-1.246,0.912-1.971,1.168c-2.172,0.766-6.754-0.357-8.234,3.146
	c-0.865-0.7-1.727-0.119-2.547,0.563c-0.119-0.176-0.164-0.362-0.258-0.586c-3.666,1.103-7.15-2.328-10.832-1.125
	c-1.941,0.635-3.535,2.086-5.607,2.506c-2.443,0.496-4.393,2.576-6.645,3.729c-2.791,1.426-6.311,1.156-9.168,1.155
	c-3.371,0.001-7.824-1.421-11.102,0.22c-1.297,0.648-1.508,1.068-3.018,0.947c-1.508-0.119-2.389,0.822-3.791,1.335
	c-1.932,0.706-3.826-0.304-5.768-0.278c-1.254,0.017-2.227,0.617-3.41,0.91c-3.764,0.935-7.67-1.122-11.49-0.623
	c-1.842,0.24-3.088,0.626-4.912,0.162c-1.475-0.375-3.66-0.094-4.879-0.995c-0.65,0.437-1.74,0.486-2.525,0.715
	c-1.268,0.368-2.521,0.763-3.85,0.78c-0.977,0.012-1.566-0.32-2.463-0.531c-1.164-0.273-1.379-0.027-2.41,0.657
	c-1.883,1.25-3.912,1.261-5.965,1.774c-2.018,0.503-4.594,1.339-6.672,0.618c-2.023-0.701-3.191-3.187-4.949-4.342
	c-1.641-1.077-3.855-0.534-5.66-1.211c-1.559-0.584-2.881-0.282-4.514-0.341c-3.443-0.123-6.635-1.049-10.145-0.875
	c-1.342,0.066-2.541-0.275-3.816-0.215c-1.736,0.082-3.377,1.178-5.157,0.836c-1.534-0.294-2.241-0.412-3.653,0.501
	c-1.654,1.069-3.057,2.114-4.115,3.747c-0.967,1.491-1.754,3.705-3.104,4.888c-0.746,0.654-1.576,1.112-2.141,1.951
	c-0.619,0.921-0.775,2.097-1.52,2.947c-1.238,1.415-3.516,2.794-5.176,3.595c-1.167,0.562-2.535,0.651-3.535,1.524
	c-1.256,1.096-1.248,2.871-2.126,4.226c-0.796,1.229-2.106,2.042-2.804,3.335c-0.768,1.425-0.99,3.392-1.191,4.986
	c-0.412,3.278-0.751,6.042,0,9.131c0.823,3.383,0,248.6,0,276.625c103.705,0,356.705,0.992,422.601,0.992V77.582z"/>
<path fill="#560B00" d="M691.822,519.092c0.953-3.65-1.271-297.866,0-300.907c-8.201-5.905-17.932-19.303-27.031-16.333
	c-0.541-0.954-0.75-1.592-1.387-2.054c-0.029,0.227-0.018,0.42,0.012,0.596c-0.064-0.147-0.121-0.307-0.193-0.444
	c0.189,1.141,0.434,2.242,0.734,3.304l-10.666-14.658c-7.041,2.457-14.49,6.225-21.219,6.04c-6.555-0.182-12.09-2.328-18.6-3.597
	c-9-1.758-18.535,2.67-27.512,2.38c-8.473-0.272-15.479-9.361-24.166-12.216c-8.268-2.716-17.039-2.246-25.314-3.605
	c-7.328-1.202-14.369-6.185-21.736-8.547c-14.492-4.646-30.748-8.469-45.438-8.551c-7.148-0.039-13.744,0.156-20.717-0.948
	c-6.654-1.058-9.906,1.861-15.416,4.944c-6.766,3.786-14.895,2.917-21.918,3.338c-7.148,0.428-12.867,3.592-19.98,5.827
	c-10.615,3.337-23.498,3.002-33.484-4.306c-4.871-3.565-7.51-7.469-13.166-7.018c-6.871,0.546-7.205,4.985-11.354,12.853
	c-6.348,12.042-13.85,5.861-22.094,10.08c-4.908,2.512-9.072,7.612-13.701,9.129c-5.777,1.893-11.598-1.709-17.52-0.917
	c-2.029,0.271-3.768,0.946-5.33,1.902c-6.07-0.445-12.258-2.6-17.387-4.078c-13.557-3.906-27.996-10.165-42.276-10.34
	c-6.784-0.084-13.405-1.199-20.241-0.937c-3.354,0.128-6.756,0.603-10.188,1.675c-3.07,0.958-6.685,3.069-9.666,3.118
	c-0.085-0.294-0.202-0.576-0.273-0.854c-2.324,1.664-4.166,1.104-6.439,1.809c-0.889,0.277-1.533,1.084-2.433,0.905
	c-1.714-0.341-1.743-1.458-3.44-0.845c-3.316,1.199-6.738,0.978-10.041,3.341c-1.352,0.967-2.396,2.701-3.766,3.277
	c-1.904,0.8-4.287,0.111-6.107-0.004c-6.288-0.401-12.525-3.299-18.902-2.848c-2.332,0.163-4.004,0.386-6.216-0.525
	c-1.643-0.676-3.909-2.075-5.819-0.144c-1.877,1.898-1.833,3.453-4.147,3.007c-1.515-0.292-3.052-0.938-4.923,0.141
	c-1.259,0.726-2.741,2.968-4.135,3.04c-0.924,0.047-1.697-0.783-2.637-0.884c-0.74-0.081-1.738,0.438-2.502,0.398
	c-1.567-0.083-3.121,0.509-4.659,0.355c-2.37-0.234-3.504-3.331-5.376-4.093c-1.021-0.415-2.371,0.591-3.506,0.562
	c-1.247-0.034-2.014-1.349-3.143-1.728c-0.928-0.312-1.729,0.086-2.594-0.648c-1.766-1.496-2.205-5.259-4.249-6.263
	c-1.166-0.573-2.177-1.511-3.468-1.604c-3.284-0.234-6.012-1.466-9.273-2.052c-1.422-0.257-2.211-1.673-3.457-2.108
	c-1.681-0.589-3.508,1.128-5.199,2.369c-2.207,1.617-3.892,2.371-6.084,2.091c-1.561-0.198-2.864-0.911-4.235-1.788
	c-0.923-0.593-1.929-1.842-2.974-1.987c-0.766-0.106-1.457,0.605-2.224,0.625c-2.294,0.058-6.323-3.142-8.774,0.509
	c-0.615-1.195-1.607-0.835-2.591-0.337c-0.062-0.263-0.05-0.505-0.072-0.814c-3.817-0.133-6.116-5.685-9.979-5.703
	c-2.036-0.009-3.985,1.111-6.083,0.79c-2.473-0.378-4.947,1.36-7.434,1.854c-3.082,0.608-6.352-1.13-9.072-2.275
	c-3.209-1.351-7.027-4.856-10.635-4.183c-1.428,0.267-1.753,0.69-3.154-0.061c-1.4-0.748-2.518,0.038-4.006,0.097
	c-1.839,0.071-3.484-1.6-5.092-2.523c-2.289-1.314-4.322-3.241-6.85-3.784c-3.954-0.85-7.974-0.693-11.819-2.156
	c-4.073-1.55-7.942-3.789-11.922-5.653c-4.778-2.24-12.432,0.746-16.347-2.981c-3.094-2.946-3.74-11.053-7.558-12.428
	c-6.038-2.173-12.585,3.648-17.378-3.369c-3.883-5.685-4.201-13.5-11.244-8.926c-5.574,3.621-10.168,12.401-15.982,16.029
	c-5.075,3.166-3.522,1.955-3.522,13.007c0,79.598,0,318.943,0,363.633C-101.768,519.092,678.34,519.951,691.822,519.092z"/>
<path fill="#3B0800" d="M456.107,211.218c-0.873,0.674-1.859,1.2-2.801,1.984c-1.164,0.971-2.539,3.209-3.835,3.281
	c-0.734,0.042-2.778-0.943-3.566-1.284c-2.622-1.138-5.219-2.372-7.615-4.218c-1.682-1.294-1.99-1.011-3.834-1.049
	c-1.358-0.03-2.532-0.726-3.821-0.635c-1.046,0.072-1.432,0.277-2.487-0.289c-2.506-1.345-5.441-1.747-8.271-2.136
	c-3.224-0.441-5.702-1.853-8.507-3.983c-3.353-2.546-6.697-3.993-10.399-5.143c-3.396-1.054-7.169-2.396-9.437-6.394
	c-3.441-6.069-6.348-13.477-11.123-18.022c-4.104-3.902-9.091-5.551-13.286-9.325c-3.936-3.539-7.366-8.552-12.159-9.716
	c-5.586-1.355-11.456,0.47-16.967-1.646c-5.929-2.277-9.236-8.034-14.335-12.175c-3.729-3.026-7.769-4.231-11.703-6.583
	c-4.047-2.416-8.156-4.842-11.425-7.61c-3.119-2.641-5.161-6.776-8.113-9.57c-5.395-5.106-12.819-1.108-18.863-2.063
	c-5.643-0.892-11.954-1.928-16.928,1.594c-2.203,1.56-4.701,1.912-6.972,3.191c-1.874,1.057-1.306,3.315-3.688,3.839
	c-1.293,0.284-2.627,0.291-3.906,0.629c-1.092,0.288-2.494,1.015-3.518,1.146c-0.53,0.068-1.102-0.343-1.576-0.239
	c-0.484,0.104-0.943,0.73-1.333,0.992c-1.018,0.684-1.972,1.371-3.245,1.404c-0.324,1.062-1.479,2.915-2.58,3.548
	c-1.493,0.858-3.216,0.604-4.873,0.851c-2.706,0.403-4.828,3.23-7.447,4.018c-0.515,1.455-4.71,2.221-6.171,2.656
	c-1.161,0.345-2.262,0.742-3.448,0.533c-1.203-0.21-2.142-0.879-3.277-0.997c-1.438-0.148-3.121-0.19-4.524,0.214
	c-1.64,0.474-2.847,1.72-4.378,2.239c-1.584,0.538-3.27,0.063-4.625,0.896c-1.206,0.741-1.732,1.503-3.125,1.947
	c-0.964,0.309-2.128,0.672-2.988,1.159c-1.023,0.581-1.658,1.556-2.543,2.25c-2.121,1.662-5.631,1.039-8.046,0.377
	c-1.16-0.318-2.349-1.117-3.536-1.231c-1.348-0.131-2.288,0.867-3.572,1.011c-2.498,0.276-5.617,0.089-8.043-0.562
	c-1.44-0.386-2.627-0.934-4.113-0.699c-1.35,0.214-2.717,0.215-4.033,0.351c-1.605,0.167-3.088,0.093-4.655-0.088
	c-1.023-0.119-2.421,0.214-3.39-0.307c-3.227,1.082-6.436,0.777-9.928,1.153c-0.878,0.095-1.865,0.703-2.777,0.511
	c-0.531-0.111-0.892-0.702-1.408-0.808c-0.602-0.121-0.652,0.113-1.213,0.209c-1.85,0.318-3.57,0.325-5.425,0.141
	c-6.43-0.646-13.199,1.42-18.806,0.979c-6.143-0.485-10.094-4.604-17.023-3.84c-5.162,0.569-8.654,3.741-14,4.045
	c-3.979,0.225-7.607-1.431-11.514-1.471c-3.587-0.037-6.645-1.234-10.117-2.087c-2.533-0.622-4.032-0.25-6.615,0.303
	c-1.211,0.258-2.204-0.142-3.376-0.378c-1.603-0.319-2.45-0.001-3.978,0.571c-2.679,1.001-4.927,0.385-7.613,0.634
	c-1.379,0.127-2.475,0.242-3.912-0.045c-1.354-0.271-2.127-0.503-2.902-1.417c-1.266-1.493-3.045-2.009-5.123-2.396
	c-2.823-0.524-5.738,0.663-8.44,0.786c-1.22,0.056-1.743-0.586-2.933-0.169c-1.393,0.486-2.291,1.648-3.337,2.693
	c-0.022,2.105-2.33,1.823-3.496,2.901c-0.12,0.11-0.058,0.484-0.179,0.606c-0.152,0.15-0.467,0.315-0.607,0.47
	c-0.28,0.312-0.585,0.581-0.861,0.917c-0.748,0.912-1.06,1.878-2.094,2.562c-1.178,0.78-2.669,1.134-3.874,1.896
	c-1.073,0.678-1.765,1.667-3.056,1.86c-1.296,0.195-2.644-0.175-3.973,0.096c-1.599,0.325-2.586-0.713-4.223-0.597
	c-1.316,0.094-2.175,0.694-3.616,0.505c-0.987-0.13-1.767-0.297-2.72-0.006c-0.874,0.269-1.42,0.699-2.316,0.768
	c-1.222,0.093-2.217-0.85-3.372-0.737c-1.079,0.105-1.653,1.16-2.61,1.507c-0.637,0.23-1.449,0.154-2.135,0.294
	c-1.312,0.266-2.596,0.69-3.827,1.219c-2.612,1.121-31.153,1.812-31.153,4.656c0,12.546,0,18.046,0,30.998
	c0,11.02,0.365,21.665,0,32.73c-0.328,9.925,0,261.461,0,277.317c105.473,0,727.473,0,771.29,0c0-55.356,0.538-351.151,0-364.609
	c-0.401-10.021-5.579-14.471-11.654-17.834c-3.997-2.212-7.748-1.51-11.715,0.341c-1.701,0.794-3.481,1.98-5.209,2.532
	c-1.735,0.554-4.06-0.66-5.462,1.297c-1.104-0.105-2.263,0.717-3.256,0.302c-0.881,1.115-2.207,1.096-3.416,1.213
	c-1.464,0.144-1.912,1.361-3.075,1.502c-1.781,0.217-2.313-1.686-4.209-0.476c-2.572,1.644-4.132,2.717-6.897,3.032
	c-3.149,0.357-5.987,2.295-9.234,1.868c-2.277-0.3-4.383,1.259-6.331,2.693c-0.964,0.71-1.99,1.778-3.043,2.197
	c-1.173,0.466-1.892-0.633-2.97-0.178c-1.056,0.443-1.412,2.524-2.487,2.975c-1.205,0.504-2.759-0.526-4.037-0.534
	c-0.989-0.006-2.714,1.581-3.342,0.896c-1.841,2.558-3.896,1.215-6.096,1.335c-1.902,0.104-3.812,0.107-5.68,0.689
	c-1.475,0.461-2.783,1.454-4.307,1.915c-3.114,0.946-6.162,3.887-9.079,5.766c-3.334,2.148-6.837,3.746-10.456,4.629
	c-1.561,0.382-3.105,1.304-4.675,1.684c-2.169,0.525-2.341-0.352-3.829,2.272c-0.779,1.373-1.99,2.81-3.329,2.872
	c-0.714,0.034-1.497-0.829-2.175-0.909c-0.792-0.092-1.416,0.351-2.153,0.601c-1.544,0.524-3.113,0.662-4.625,1.212
	c-1.655,0.603-3.057,1.632-4.726,1.926c-1.688,0.3-3.475-0.01-5.188,0.229c-2.486,0.346-4.845,1.847-6.975,2.803
	c-3.563,1.6-7.668,3.446-11.435,3.587c-2.062,0.078-3.981-1.958-6.062-1.5c-1.627,0.358-2.87,2.127-4.491,2.241
	c-2.161,0.15-4.122-0.832-6.347-0.261c-1.733,0.447-3.55,0.881-5.341,1.222c-1.369,0.263-2.55,0.668-3.824,1.586
	c-1.554,1.119-2.802,1.69-4.497,2.501c-1.565,0.749-2.161,2.12-3.8,2.742c-1.187,0.449-2.395,0.971-3.667,1.632
	c-2.247,1.165-4.143,2.47-6.537,2.501c-2.273,0.029-3.983,1.298-6.053,2.535c-1.534,0.915-3.206,1.812-4.827,2.332
	c-1.381,0.445-2.941,0.133-4.27,0.84c-0.598,0.319-2.047,0.776-2.479,1.387c-0.649,0.918-0.539,2.342-1.058,3.354
	c-0.671,1.311-1.949,1.896-2.586,3.369c-0.661,0.518-1.216,0.994-1.878,1.505c-1.648,1.267-1.724,1.034-1.692,3.798
	c0.034,2.916-0.47,3.843-2.032,5.768C456.909,210.546,456.521,210.898,456.107,211.218z"/>
<path fill="#1E0400" d="M739.337,621.52c-0.414-11.797,0-366.668,0-382.404c0-11.597,0-14.264,0-28.626c0-9.978,0-15.332,0-24.595
	c0-22.376,0-30.355,0-56.617c-11.836-0.007-23.215-25.361-34.167-25.687c0.518,0.196-1.006-0.281-1.919-0.987
	c-7.307-5.602-17.551,1.779-26.061,1.071c-8.279-0.689-15.097,6.868-23.31,11.143c-6.052,3.148-10.383,9.099-17.056,11.135
	c-5.382,1.645-10.074,3.484-14.768,7.108c-6.7,5.175-13.024,4.041-18.719,7.736c-4.838,3.14-11.255,5.89-12.503,7.417
	c-11.774,15.631-30.122,9.459-43.997,12.296c-5.429,1.108-7.491,3.008-12.803,9.643c-4.958,6.197-9.964,12.411-15.296,16.053
	c-5.908,4.035-11.822,8.039-17.755,11.932c-2.172,1.424-2.971,2.34-4.537,5.148c-1.704,3.053-3.696,2.038-5.798,3.068
	c-1.739,0.848-3.487,0.389-4.959,1.628c-3.776,3.184-8.166,8.617-12.265,9.614c-3.96,0.965-7.722,1.639-11.654,3.601
	c-0.588,0.293-1.375,0.418-1.916,0.943c-0.15,0.145-0.976,1.523-0.994,1.532c-0.969,0.42-1.551-0.994-2.646-1.269
	c-1.243-0.31-0.56,0.088-1.402,0.924c-1.103,1.096-2.274,2.406-3.663,0.845c-0.723,0.909-1.561,2.692-2.333,2.432
	c-0.817,2.998-2.499,2.096-3.929,3.154c-3.934,2.916-7.933,6.547-12.123,4.928c-2.105-0.814-3.274,0.141-5.238,1.338
	c-2.191,1.336-4.57,1.462-6.839,1.899c-3.704,0.712-7.43,0.02-11.14,0.418c-3.26,0.351-6.323,1.675-9.6,0.63
	c-6.77-2.16-12.521-10.595-19.065-14.202c-1.379-0.761-2.236-0.413-3.513-0.305c-1.639,0.14-2.853-1.11-4.419-1.887
	c-1.833-0.91-3.752-1.337-5.61-2.124c-2.315-0.98-4.259-2.455-6.658-4.315c-1.127-0.874-2.469-1.293-3.63-2.36
	c-0.842-0.772-1.454-1.722-2.165-2.857c-0.789-1.257-0.759-1.235-1.535-2.022c-3.102-3.147-6.634-5.394-9.499-9.062
	c-3.118-3.992-6.205-8.757-9.856-10.698c-6.004-3.191-11.154-1.424-16.907,2.247c-4.919,3.139-8.19,4.448-13.185,0.414
	c-3.159-2.552-5.847-6.999-9.178-8.755c-3.949-2.082-8.104-0.258-12.041-2.504c-2.269-1.294-4.249-5.033-6.518-6.066
	c-4.718-2.148-10,2.218-15.966-1.116c-7.232-4.043-14.17-9.219-21.514-12.604c-5.203-2.396-11.627-3.282-16.672-8.533
	c-6.277-6.536-7.569-19.547-14.401-26.13c-12.576-2.805-25.093-14.249-36.411-26.625c-5.365-5.867-11.83-11.459-17.183-18.56
	c-3.708-4.918-8.213-14.825-12.785-17.566c-5.088-3.052-11.68-3.34-17.056-5.657c-7.856-3.386-17.333-5.444-25.495-4.271
	c-10.568,1.519-23.79,19.792-33.331,28.169c-8.949,7.857-17.554,20.417-25.815,32.161c-4.254,6.047-7.664,9.303-12.152,12.503
	c-7.379,5.263-7.163,11.943-12.185,22.876c-8.278,18.021-22.13,13.174-31.884,22.534c-8.924,8.561-21.879,13.327-28.554,27.804
	c0.175,3.319-0.232,7.278,0,10.642c0,16.754,0,32.087,0,52.149c0,14.572,0,344.18,0,359.271H739.337z"/>
<g>
	<g>
		<path fill="#00403F" d="M511,83.5c0.038,0,0.038-5,0-5S510.962,83.5,511,83.5L511,83.5z"/>
	</g>
</g>
</svg>
