<svg xmlns="http://www.w3.org/2000/svg" width="700" height="500" viewBox="0 0 700 500"><path fill="#00403F" d="M511 83.5c.038 0 .038-5 0-5s-.038 5 0 5z"/><path fill="#701300" d="M737.21 77.582c-7.458 5.337-18.454 5.695-26.606 6.488-13.82 1.347-29.027 1.21-42.664 5.578-6.48 2.073-13.043 3.325-19.49 5.674-3.164 1.152-6.29 2.58-9.31 4.463-2.698 1.684-5.645 4.402-8.472 5.377-.15-.192-.328-.368-.46-.553-1.825 1.978-3.71 2.138-5.708 3.38-.78.488-1.207 1.295-2.105 1.445-1.71.285-2-.543-3.473.45-2.877 1.942-6.186 2.855-8.78 5.663-1.06 1.15-1.65 2.775-2.82 3.64-1.624 1.198-4.054 1.433-5.813 1.92-6.08 1.68-12.696 1.476-18.663 3.822-2.182.857-3.72 1.55-6.04 1.565-1.722.01-4.206-.322-5.573 1.725-1.344 2.012-.94 3.162-3.246 3.557-1.51.258-3.125.26-4.654 1.654-1.03.942-1.916 3.087-3.227 3.58-.87.327-1.8-.052-2.717.17-.723.17-1.553.874-2.29 1.085-1.51.432-2.853 1.363-4.35 1.734-2.313.568-4.116-1.39-6.075-1.372-1.07.012-2.12 1.19-3.207 1.525-1.195.367-2.232-.375-3.396-.303-.955.06-1.625.607-2.62.332-2.03-.564-3.327-3.24-5.51-3.35-1.243-.062-2.425-.444-3.675-.107-3.182.86-6.066.795-9.31 1.385-1.413.256-2.493-.555-3.782-.488-1.738.088-3.076 1.95-4.396 3.41-1.724 1.906-3.15 3-5.304 3.48-1.533.344-2.94.22-4.45-.003-1.02-.154-2.267-.772-3.296-.553-.754.162-1.246.912-1.97 1.168-2.173.766-6.755-.357-8.235 3.146-.865-.7-1.727-.118-2.547.564-.12-.176-.164-.362-.258-.586-3.666 1.103-7.15-2.328-10.832-1.125-1.94.635-3.535 2.086-5.607 2.506-2.442.495-4.392 2.575-6.644 3.728-2.79 1.426-6.31 1.156-9.168 1.155-3.37 0-7.824-1.42-11.102.22-1.297.648-1.508 1.068-3.018.947-1.508-.12-2.39.822-3.79 1.335-1.933.706-3.827-.304-5.77-.278-1.253.017-2.226.617-3.41.91-3.763.935-7.67-1.122-11.49-.623-1.84.24-3.087.626-4.91.162-1.476-.375-3.66-.094-4.88-.995-.65.438-1.74.487-2.525.716-1.268.368-2.52.763-3.85.78-.977.012-1.566-.32-2.463-.53-1.164-.274-1.38-.028-2.41.656-1.883 1.25-3.912 1.26-5.965 1.774-2.018.503-4.594 1.34-6.672.618-2.023-.7-3.19-3.187-4.95-4.342-1.64-1.077-3.854-.534-5.66-1.21-1.558-.585-2.88-.283-4.513-.342-3.443-.123-6.635-1.05-10.145-.875-1.342.066-2.54-.275-3.816-.215-1.737.082-3.378 1.178-5.158.836-1.534-.294-2.24-.412-3.653.5-1.655 1.07-3.058 2.115-4.116 3.748-.967 1.49-1.754 3.705-3.104 4.888-.746.654-1.576 1.112-2.14 1.95-.62.922-.776 2.098-1.52 2.948-1.24 1.415-3.517 2.794-5.177 3.595-1.167.562-2.535.65-3.535 1.524-1.256 1.095-1.248 2.87-2.126 4.225-.796 1.23-2.106 2.042-2.804 3.335-.768 1.425-.99 3.392-1.19 4.986h-359.84v286.748h782.44V77.582z"/></svg>