<svg xmlns="http://www.w3.org/2000/svg" width="68.343" height="29.959" viewBox="0 0 68.343 29.959"><g fill="#560B00"><path d="M53.95 24.65c0-1.557-.935-2.84-.935-2.84l15.326.46s-11.9 1.03-11.9 1.965c0 .96 5.5 2.565 5.5 2.565l-8.925.688c0 .002.934-1.28.934-2.837zM25.713 20.61c20.698 0 25.715-.903 25.715 3.812 0 4.72-20.366 5.537-25.716 5.537C20.364 29.96 0 29.403 0 24.424s5.015-3.816 25.714-3.816z"/><path d="M23.227 24.282c0-.417-.01-1.98-.016-2.95-3.228.702-3.907-1.368-3.907-1.368-.527-1.34-1.287-1.695-1.287-1.695-1.053-.722.08-.706.08-.706 1.164.082 1.777 1.193 1.777 1.193 1.032 1.774 2.713 1.264 3.375.967.104-.75.403-1.263.734-1.553-2.576-.292-5.284-1.287-5.284-5.728 0-1.27.453-2.304 1.194-3.114-.12-.293-.518-1.473.113-3.07 0 0 .974-.312 3.19 1.19.923-.258 1.915-.388 2.9-.394.985.006 1.98.136 2.907.393 2.214-1.502 3.187-1.19 3.187-1.19.63 1.6.233 2.777.112 3.07.744.812 1.193 1.847 1.193 3.113 0 4.454-2.715 5.437-5.298 5.724.415.36.786 1.065.786 2.146 0 1.555-.017 3.73-.017 3.976-.66.182-1.69.358-2.875.358-1.182-.002-2.133-.17-2.87-.36l.007-.002z"/><path d="M25.84 24.046c4.777 0 7.84-.382 10.205-1.502 2.96-1.398 4.488-3.94 4.488-7.85C40.533 6.58 33.953 0 25.84 0c-8.114 0-14.695 6.58-14.695 14.694 0 3.91 1.53 6.448 4.49 7.85 2.364 1.12 5.425 1.5 10.204 1.5v.002zm0-2.005c-9.574 0-13.36-1.79-13.36-8.014C12.48 6.648 18.464.668 25.84.668c7.378 0 13.356 5.98 13.356 13.358.003 6.223-3.782 8.015-13.355 8.015z"/></g></svg>