<?xml version="1.0" encoding="utf-8"?>
<!-- Generator: Adobe Illustrator 16.0.0, SVG Export Plug-In . SVG Version: 6.00 Build 0)  -->
<!DOCTYPE svg PUBLIC "-//W3C//DTD SVG 1.1//EN" "http://www.w3.org/Graphics/SVG/1.1/DTD/svg11.dtd">
<svg version="1.1" id="Layer_1" xmlns="http://www.w3.org/2000/svg" xmlns:xlink="http://www.w3.org/1999/xlink" x="0px" y="0px"
	 width="3000px" height="1083.398px" viewBox="0 0 3000 1083.398" enable-background="new 0 0 3000 1083.398" xml:space="preserve">
<g>
	<g transform="translate(-99.000000, -229.000000)">
		<g transform="translate(0.000000, 206.500000)">
			<g transform="translate(122.000000, 330.000000)">
				<path fill="#E34B30" d="M232.328,38.488l78.395,7.879l18.06-41.57l90.75,94.68L533.755,27.7l64.017,100.426l72.723-20.77
					l58.113,81.848l40.547-11.543l31.926,40.18l53.695,16.344h99.641l63.078-11.913l37.086,5.448l76.945-20.312l78.625,10.434
					l91.715-28.637l70.434,18.203l65.754-13.517l25.445,13.517H1623.4l138.237,10.434h84.074l96.199-28.637l39.895-23.641
					l19.379,12.098l104.688-12.098l73.102-25.438l68.98,10.223l52.801-10.223L2405.801,0.68l169.742,181.849h85l29.188-83.052
					l30.668,118.363l51.953,16.344l71.074-153.108l14.32,47.051l21.281-123.328l25.219,160.767l14.32-84.488l156.916,694.822
					H-251.851L232.328,38.488z"/>
			</g>
		</g>
	</g>
</g>
</svg>
