<?xml version="1.0" encoding="utf-8"?>
<!-- Generator: Adobe Illustrator 16.0.0, SVG Export Plug-In . SVG Version: 6.00 Build 0)  -->
<!DOCTYPE svg PUBLIC "-//W3C//DTD SVG 1.1//EN" "http://www.w3.org/Graphics/SVG/1.1/DTD/svg11.dtd">
<svg version="1.1" id="Layer_1" xmlns="http://www.w3.org/2000/svg" xmlns:xlink="http://www.w3.org/1999/xlink" x="0px" y="0px"
	 width="3000px" height="590px" viewBox="0 0 3000 590" enable-background="new 0 0 3000 590" xml:space="preserve">
<g>
	<g transform="translate(-99.000000, -229.000000)">
		<g transform="translate(0.000000, 206.500000)">
			<g transform="translate(122.000000, 330.000000)">
				<path fill="#E34B30" d="M232.328,38.488l78.395,7.879l18.059-41.57l90.75,94.68l114.223-71.777l64.016,100.426l72.723-20.77
					l58.113,81.848l40.547-11.543l31.926,40.18l53.695,16.344h99.641l63.078-11.914l37.086,5.449l76.945-20.312l78.625,10.434
					l91.715-28.637l70.434,18.203l65.754-13.516l25.445,13.516h159.902l138.238,10.434h84.074l96.199-28.637l39.895-23.641
					l19.379,12.098l104.688-12.098l73.102-25.438l68.98,10.223l52.801-10.223L2405.801,0.68l169.742,181.848h85l29.188-83.051
					l30.668,118.363l51.953,16.344l71.074-153.109l14.32,47.051l21.281-123.328l25.219,160.766l14.32-84.488l43.25,249.371H0.09
					L232.328,38.488z"/>
			</g>
			<g transform="translate(208.000000, 308.000000)">
				<path fill="#BA3525" d="M0.398,210.527l127.836-55.461l61.633-59.523l76.996,94.867l240.318-65.664l62.615,85.781l81.359-20.117
					l70.67,88.605l81.234-20.441l69.207,20.441h48.998h153.723h215.168l128.836-7.324l56.57-21.285l88.043,21.285l181.531-25.316
					l75.131,39.742l182.035-52.426l29.721-23.164l60.963,23.164l76.172-23.164l71.932-114.984l103.812,48.75L2416.76,0.27
					l84.561,173.324l46.957-83.367l35.691,143.465l267.965,197.281L86.203,368.309L0.398,210.527z"/>
				<path fill="#BA3525" d="M2005,216.5h40v-40h-40V216.5z"/>
			</g>
			<g>
				<g transform="translate(50.000000, 431.500000)">
					<rect fill="#991F16" width="185" height="180"/>
					<rect x="2982" fill="#991F16" width="185" height="180"/>
				</g>
				<path fill="#991F16" d="M53.391,578.969l135.707-156.137l117.827,78.348l133.56-102.113l40.535,23.766l60.762-112.223
					l162.211,185.5l60.375-34.633l88.41,111.258h463.258l39.887-13.152l16.984,13.152h199.047l28.811-13.152l73.096,13.152h266.215
					l157.121-50.438l85.141-2l123.648,69.719l82.625-51.398l73.203-16.32l34.633,50.438l128.66-50.438l77.141-161.527
					l47.174,187.951l34.373-114.658l28.602,100.164l198.457-61.129l34.242-100.32l140.93,274.281l-1654.562,88.473L60.559,689.539
					L53.391,578.969z"/>
				<path fill="#991F16" d="M98.325,619.39c-105.662-53.222,22.177-156.146,94.065-302.893
					c99.973-207.426,242.953-155.969,242.953-155.969c96.306,28.555,148.54,2.095,148.54,2.095
					c84.733-26.92,35.338,34.628,35.338,34.628c-54.497,60.486-142.017,46.377-142.017,46.377
					c-141.833-19.272-185.74,94.987-197.87,144.078C259.199,475.477,203.986,672.61,98.325,619.39z M246.713,358.117
					c-5.865-3.112-7.024-12.554-2.52-21.23c4.447-8.518,13.03-12.912,18.878-9.866c6.012,3.208,7.097,12.745,2.658,21.251
					C261.128,356.875,252.715,361.25,246.713,358.117z M276.573,302.776c-5.431-3.953-5.005-13.541,0.858-21.242
					c5.811-7.81,14.949-10.661,20.22-6.679c5.343,4.174,4.971,13.583-0.883,21.36C290.968,303.947,281.82,306.876,276.573,302.776z
					 M321.42,253.278c-3.793-5.479-0.451-14.464,7.361-20.062c7.867-5.537,17.461-5.688,21.382-0.263
					c3.888,5.467,0.597,14.562-7.394,20.104C334.922,258.592,325.362,258.786,321.42,253.278z M379.489,221.67
					c-1.13-6.545,5.772-13.212,15.344-14.56c9.544-1.575,18.114,2.606,19.236,9.162c1.097,6.587-5.871,13.272-15.444,14.688
					C389.114,232.492,380.404,228.424,379.489,221.67z M442.26,214.913c0.33-6.071,7.911-10.498,16.719-10.014
					c8.774,0.526,15.626,5.879,15.229,12.035c-0.371,6.125-7.793,10.521-16.589,10.132
					C448.758,226.456,441.917,221.111,442.26,214.913z M498.952,218.477c-0.436-5.267,5.555-10.218,13.207-10.773
					c7.75-0.702,14.344,3.184,14.8,8.535c0.36,5.362-5.499,10.125-13.257,10.837C505.899,227.736,499.333,223.923,498.952,218.477z
					 M554.863,202.614c5.738-3.009,12.124-2.228,14.143,1.778c2.192,3.937-0.819,9.675-6.634,12.607
					c-5.735,3.028-12.197,2.256-14.133-1.856C546.146,211.232,549.106,205.472,554.863,202.614z"/>
				<path fill="#991F16" d="M2717.365,870.873c116.203,52.385,115.703-124.439,189.83-284.131
					c105.894-224.348-34.137-309.174-34.137-309.174c-89.207-61.276-102.468-122.953-102.468-122.953
					c-34.911-89.2-52.954-6.109-52.954-6.109c-13.694,86.642,57.46,150.354,57.46,150.354
					c112.304,105.689,46.405,219.923,13.524,263.364C2724.306,626.397,2601.162,818.488,2717.365,870.873z M2835.516,569.478
					c6.582,2.802,15.273-2.63,19.485-12.284c4.115-9.498,1.977-19.665-4.539-22.496c-6.763-2.858-15.483,2.7-19.597,12.185
					C2826.781,556.565,2828.822,566.576,2835.516,569.478z M2861.606,506.953c6.991,1.868,14.73-4.99,17.204-15.121
					c2.599-10.161-1.211-19.745-8.118-21.459c-7.118-1.643-14.743,5.047-17.286,15.222
					C2850.865,495.695,2854.616,505.34,2861.606,506.953z M2872.643,435.842c7.16-0.538,12.417-9.43,11.808-19.766
					c-0.698-10.341-7.077-18.477-14.277-18.082c-7.214,0.451-12.598,9.374-11.82,19.822
					C2859.039,428.141,2865.358,436.277,2872.643,435.842z M2859.736,365.791c6.246-3.492,7.148-13.791,1.787-22.721
					c-5.152-9.059-14.464-13.399-20.713-9.894c-6.26,3.548-7.133,13.913-1.827,22.889
					C2844.148,365.068,2853.461,369.604,2859.736,365.791z M2822.833,308.651c4.859-4.394,3.426-13.742-2.951-20.788
					c-6.39-6.99-15.518-9.098-20.403-4.591c-4.876,4.463-3.525,13.659,2.765,20.759
					C2808.764,311.037,2817.877,313.141,2822.833,308.651z M2781.41,263.6c4.705-3.207,4.789-11.578,0.065-18.363
					c-4.667-6.964-12.392-9.851-17.181-6.604c-4.734,3.333-4.749,11.468-0.086,18.448
					C2768.947,264.061,2776.592,266.974,2781.41,263.6z M2750.784,220.071c4.693-0.898,7.509-7.283,5.999-14.041
					c-1.371-6.845-6.355-11.662-11.078-10.636c-4.783,0.833-7.546,7.245-6.059,14.102
					C2741,216.353,2746.027,221.239,2750.784,220.071z"/>
			</g>
		</g>
		<g transform="translate(1072.756772, 649.286845)">
			<path fill="#991F16" d="M27.213,0.055c0,0,0.682,14.369,0.682,19.166c2.409,4.984,9.168,30.08,9.168,56.325
				s-6.265,36.788-6.265,36.788h-6.963c0,0-6.048-10.823-6.048-36.788s5.177-44.792,8.875-56.325
				C26.662,14.348,27.213,0.055,27.213,0.055z"/>
			<path fill="#991F16" d="M14.482,74.925l-1.267,21.222l14.32-1.115c0,0-0.148,2.56-0.148,5.688
				c-18.198-3.128-20.469,18.95-24.698,30.479l-2.511,0.683l11.829-56.879L14.482,74.925z"/>
			<path fill="#991F16" d="M40.236,74.925l1.268,21.222l-14.321-1.115c0,0,0.148,2.56,0.148,5.688
				c18.199-3.128,20.469,18.95,24.699,30.479l2.51,0.683L42.711,75.001L40.236,74.925z"/>
		</g>
		<g transform="translate(985.108965, 724.000000)">
			<path fill="#991F16" d="M53.949,24.866c0-1.556-0.933-2.839-0.933-2.839l15.327,0.457c0,0-11.902,1.034-11.902,1.966
				c0,0.961,5.501,2.567,5.501,2.567l-8.926,0.687C53.016,27.704,53.949,26.421,53.949,24.866z"/>
			<path fill="#991F16" d="M25.714,20.823c20.699,0,25.715-0.904,25.715,3.814s-20.365,5.537-25.715,5.537
				C20.366,30.175,0,29.617,0,24.638S5.016,20.823,25.714,20.823z"/>
			<path fill="#991F16" d="M23.227,24.496c0-0.417-0.011-1.98-0.016-2.949c-3.227,0.701-3.908-1.369-3.908-1.369
				c-0.527-1.341-1.287-1.697-1.287-1.697c-1.053-0.72,0.079-0.705,0.079-0.705c1.165,0.082,1.778,1.195,1.778,1.195
				c1.034,1.773,2.713,1.261,3.375,0.965c0.104-0.75,0.405-1.262,0.736-1.552c-2.576-0.293-5.284-1.288-5.284-5.732
				c0-1.267,0.453-2.301,1.194-3.113c-0.12-0.293-0.518-1.473,0.113-3.07c0,0,0.974-0.312,3.19,1.189
				c0.925-0.257,1.917-0.386,2.903-0.391c0.985,0.005,1.979,0.134,2.906,0.391c2.214-1.501,3.187-1.189,3.187-1.189
				c0.631,1.598,0.234,2.777,0.113,3.07c0.744,0.812,1.194,1.847,1.194,3.113c0,4.455-2.714,5.437-5.297,5.724
				c0.416,0.359,0.787,1.065,0.787,2.147c0,1.553-0.017,3.727-0.017,3.974c-0.658,0.182-1.688,0.359-2.874,0.361
				C24.915,24.855,23.962,24.689,23.227,24.496z"/>
			<path fill="#991F16" d="M25.84,24.259c4.779,0,7.84-0.381,10.204-1.501c2.96-1.401,4.49-3.94,4.49-7.85
				c0-8.115-6.579-14.694-14.694-14.694S11.146,6.793,11.146,14.908c0,3.909,1.531,6.448,4.49,7.85
				C18,23.878,21.061,24.259,25.84,24.259L25.84,24.259z M25.84,22.255c-9.574,0-13.358-1.792-13.358-8.015
				c0-7.378,5.981-13.358,13.358-13.358c7.378,0,13.358,5.98,13.358,13.358C39.199,20.463,35.414,22.255,25.84,22.255L25.84,22.255z
				"/>
		</g>
	</g>
</g>
</svg>
