<?xml version="1.0" encoding="utf-8"?>
<!-- Generator: Adobe Illustrator 16.0.0, SVG Export Plug-In . SVG Version: 6.00 Build 0)  -->
<!DOCTYPE svg PUBLIC "-//W3C//DTD SVG 1.1//EN" "http://www.w3.org/Graphics/SVG/1.1/DTD/svg11.dtd">
<svg version="1.1" id="Layer_1" xmlns="http://www.w3.org/2000/svg" xmlns:xlink="http://www.w3.org/1999/xlink" x="0px" y="0px"
	 width="3000px" height="1314.422px" viewBox="0 0 3000 1314.422" enable-background="new 0 0 3000 1314.422" xml:space="preserve">
<g>
	<g transform="translate(-99.000000, -229.000000)">
		<g transform="translate(0.000000, 206.500000)">
			<g transform="translate(208.000000, 308.000000)">
				<path fill="#BA3525" d="M0.398,210.527l127.836-55.461l61.633-59.523l76.996,94.867l240.317-65.664l62.615,85.781l81.359-20.117
					l70.67,88.604l81.233-20.44l69.207,20.44h48.998h153.724h215.168l128.836-7.323l56.569-21.285l88.043,21.285l181.531-25.316
					l75.131,39.742l182.035-52.426l29.721-23.164l60.963,23.164l76.172-23.164l71.933-114.984l103.812,48.75L2416.76,0.27
					l84.562,173.324l46.957-83.367l35.69,143.466l513.524,801.229l-3258.326,54.006L0.398,210.527z"/>
			</g>
		</g>
	</g>
</g>
</svg>
