<?xml version="1.0" encoding="utf-8"?>
<!-- Generator: Adobe Illustrator 16.0.0, SVG Export Plug-In . SVG Version: 6.00 Build 0)  -->
<!DOCTYPE svg PUBLIC "-//W3C//DTD SVG 1.1//EN" "http://www.w3.org/Graphics/SVG/1.1/DTD/svg11.dtd">
<svg version="1.1" id="_x31_" xmlns="http://www.w3.org/2000/svg" xmlns:xlink="http://www.w3.org/1999/xlink" x="0px" y="0px"
	 width="700px" height="500px" viewBox="0 0 700 500" enable-background="new 0 0 700 500" xml:space="preserve">
<g>
	<g>
		<path fill="#00403F" d="M511,83.5c0.038,0,0.038-5,0-5S510.962,83.5,511,83.5L511,83.5z"/>
	</g>
</g>
<path fill="#701300" d="M737.209,77.582c-7.457,5.337-18.453,5.695-26.605,6.488c-13.82,1.347-29.027,1.211-42.664,5.578
	c-6.479,2.073-13.043,3.325-19.49,5.674c-3.164,1.152-6.291,2.58-9.309,4.463c-2.699,1.684-5.646,4.402-8.473,5.377
	c-0.15-0.192-0.328-0.368-0.461-0.553c-1.824,1.979-3.709,2.139-5.707,3.382c-0.781,0.487-1.207,1.294-2.105,1.444
	c-1.711,0.285-2-0.543-3.473,0.451c-2.877,1.941-6.186,2.854-8.779,5.662c-1.061,1.149-1.65,2.775-2.82,3.639
	c-1.625,1.199-4.055,1.434-5.814,1.921c-6.08,1.681-12.695,1.476-18.662,3.822c-2.182,0.857-3.721,1.55-6.039,1.565
	c-1.723,0.011-4.207-0.322-5.574,1.725c-1.344,2.012-0.939,3.162-3.246,3.557c-1.51,0.258-3.125,0.26-4.654,1.654
	c-1.029,0.941-1.916,3.086-3.227,3.579c-0.869,0.327-1.799-0.052-2.717,0.169c-0.723,0.172-1.553,0.875-2.289,1.086
	c-1.512,0.432-2.854,1.363-4.352,1.734c-2.312,0.569-4.115-1.389-6.074-1.371c-1.07,0.012-2.119,1.189-3.207,1.525
	c-1.195,0.367-2.232-0.375-3.396-0.303c-0.955,0.059-1.625,0.607-2.619,0.332c-2.031-0.564-3.328-3.241-5.51-3.349
	c-1.244-0.063-2.426-0.445-3.676-0.108c-3.182,0.859-6.066,0.795-9.309,1.385c-1.414,0.256-2.494-0.555-3.783-0.488
	c-1.738,0.088-3.076,1.949-4.396,3.41c-1.723,1.906-3.15,3-5.303,3.48c-1.533,0.344-2.941,0.221-4.451-0.003
	c-1.018-0.153-2.266-0.771-3.295-0.552c-0.754,0.162-1.246,0.912-1.971,1.168c-2.172,0.766-6.754-0.357-8.234,3.146
	c-0.865-0.7-1.727-0.119-2.547,0.563c-0.119-0.176-0.164-0.362-0.258-0.586c-3.666,1.103-7.15-2.328-10.832-1.125
	c-1.941,0.635-3.535,2.086-5.607,2.506c-2.443,0.496-4.393,2.576-6.645,3.729c-2.791,1.426-6.311,1.156-9.168,1.155
	c-3.371,0.001-7.824-1.421-11.102,0.22c-1.297,0.648-1.508,1.068-3.018,0.947c-1.508-0.119-2.389,0.822-3.791,1.335
	c-1.932,0.706-3.826-0.304-5.768-0.278c-1.254,0.017-2.227,0.617-3.41,0.91c-3.764,0.935-7.67-1.122-11.49-0.623
	c-1.842,0.24-3.088,0.626-4.912,0.162c-1.475-0.375-3.66-0.094-4.879-0.995c-0.65,0.437-1.74,0.486-2.525,0.715
	c-1.268,0.368-2.521,0.763-3.85,0.78c-0.977,0.012-1.566-0.32-2.463-0.531c-1.164-0.273-1.379-0.027-2.41,0.657
	c-1.883,1.25-3.912,1.261-5.965,1.774c-2.018,0.503-4.594,1.339-6.672,0.618c-2.023-0.701-3.191-3.187-4.949-4.342
	c-1.641-1.077-3.855-0.534-5.66-1.211c-1.559-0.584-2.881-0.282-4.514-0.341c-3.443-0.123-6.635-1.049-10.145-0.875
	c-1.342,0.066-2.541-0.275-3.816-0.215c-1.736,0.082-3.377,1.178-5.157,0.836c-1.534-0.294-2.241-0.412-3.653,0.501
	c-1.654,1.069-3.057,2.114-4.115,3.747c-0.967,1.491-1.754,3.705-3.104,4.888c-0.746,0.654-1.576,1.112-2.141,1.951
	c-0.619,0.921-0.775,2.097-1.52,2.947c-1.238,1.415-3.516,2.794-5.176,3.595c-1.167,0.562-2.535,0.651-3.535,1.524
	c-1.256,1.096-1.248,2.871-2.126,4.226c-0.796,1.229-2.106,2.042-2.804,3.335c-0.768,1.425-0.99,3.392-1.191,4.986H-45.233v286.748
	c0,0,720.447,0,782.442,0V77.582z"/>
</svg>
