<?xml version="1.0" encoding="utf-8"?>
<!-- Generator: Adobe Illustrator 16.0.0, SVG Export Plug-In . SVG Version: 6.00 Build 0)  -->
<!DOCTYPE svg PUBLIC "-//W3C//DTD SVG 1.1//EN" "http://www.w3.org/Graphics/SVG/1.1/DTD/svg11.dtd">
<svg version="1.1" id="Layer_1" xmlns="http://www.w3.org/2000/svg" xmlns:xlink="http://www.w3.org/1999/xlink" x="0px" y="0px"
	 width="792px" height="612px" viewBox="0 0 792 612" enable-background="new 0 0 792 612" xml:space="preserve">
<path fill="#871D1A" d="M679.049,183.041c-4.924-0.201-11.07-2.792-16.049-3.74c-10.592-2.018-14.598-5.171-22.258-12.657
	c-3.633-3.548-8.594-3.898-13.18-4.977c-4.625-1.086-8.27-4.171-12.916-5.101c-2.465-0.494-5.406-1.573-7.184-3.092
	c-2.047-1.751-4.596-2.26-6.736-3.527c-1.152-0.684-2.236-1.577-3.6-2.081c-2.557-0.946-4.037-2.691-6.617-3.735
	c-3.324-1.347-6.803-2.334-10.371-2.57c-2.312-0.152-4.855-0.064-7.076,0.776c-0.84,0.317-1.523,0.94-2.334,1.265
	c-1.029,0.412-2.229,0.167-3.182,0.823c-1.871,1.291-0.809,1.372-3.154,0.906c-1.031-0.205-1.904,0.252-3.037,0.24
	c-1.373-0.015-2.762-0.536-4.051-0.992c-1.004-0.356-1.551-0.72-2.406-1.425c-1.26-1.036-1.793-0.605-3.373-1.105
	c-1.326-0.42-2.441-1.449-3.91-1.705c-2.764-0.482-5.057-2.186-7.801-2.422c-3.574-0.306-7.65,0.416-10.896-1.53
	c-2.725-1.634-4.695-5.003-7.357-6.937c-2.361-1.715-4.937-3.643-7.463-5.016c-2.732-1.485-6.111-0.601-8.728-2.449
	c-1.896-0.086-3.434-1.307-5.465-1.408c-2.535-0.124-5.113-0.101-7.604,0.418c-0.879,0.185-1.105,0.365-1.87,0.803
	c-1.866,1.066-2.722,0.902-4.774,0.996c-3.198,0.146-5.747,2.912-8.876,3.123c-1.204,0.08-2.281-0.333-3.506-0.143
	c-1.713,0.268-3.456,0.984-5.132,1.464c-3.558,1.019-6.891,1.509-10.534,1.86c-3.084,0.297-5.705,2.337-8.77,2.619
	c-2.475,0.229-4.868,0.479-7.307,0.525c-3.04,0.059-6.648,1.894-9.469,3.119c-3.219,1.398-7.072,1.048-10.335,2.429
	c-2.865,1.212-6.256,3.187-9.404,2.915c-1.202-0.104-2.093-0.839-3.235-1.104c-1.741-0.402-3.729,0.207-5.452,0.568
	c-2.271,0.477-4.636,0.703-6.942,0.773c-2.172,0.065-3.94-0.418-5.982,0.774c-1.951,1.139-2.979,1.228-5.138,1.104
	c-2.001-0.113-3.69,0.256-5.349,1.5c-1.008,0.756-1.064,1.035-2.279,1.076c-1.449,0.051-2.304,0.506-3.648,0.842
	c-3.211,0.801-5.85-0.633-8.962-0.437c-1.22,0.077-2.254,1.151-3.503,1.313c-1.582,0.206-3.217,0.531-4.823,0.754
	c-1.003,0.139-2.179-0.164-3.19-0.291c-0.476-0.061-0.976-0.307-1.438-0.338c-2.273-0.154-3.943,1.254-6.173,1.453
	c-2.042,0.182-4.139-0.129-6.152,0.566c-0.688,0.237-1.177,0.914-1.975,1.035c-0.919,0.139-1.606-0.426-2.589-0.131
	c-0.996,0.301-1.434,0.93-2.516,0.912c-0.703-0.011-1.402-0.41-2.084-0.522c-1.868-0.309-3.08,0.915-4.922,0.588
	c-1.29-0.229-1.808-0.681-3.068,0.003c-0.6,0.324-0.971,1.102-1.568,1.463c-1.09,0.659-3,1.463-4.37,1.561
	c-1.412,0.102-2.71-0.784-4.083-0.213c-3.688,1.534-5.279,5.762-9.502,6.425c-4.95,0.777-9.977,0.25-14.912,1.137
	c-6.939,1.248-14.029,2.964-21.104,3.895c-8.738,1.146-15.75-2.2-24.227-2.141c-1.559,0.01-1.088,0.754-1.767,1.521
	c-3.966-0.303-7.956,0.361-11.927,0.168c-4.31-0.211-6.944-2.87-10.898-3.916c-1.11-0.295-1.971,0.274-3.15,0.237
	c-2.064-0.065-4.933-1.193-6.835-1.786c-2.522-0.785-5.474-0.669-7.882-2.239c-0.998-0.65-1.893-1.239-3.033-1.931
	c-1.25-0.754-1.637-1.225-3.135-1.321c-1.281-0.08-1.926,0.008-3.17-0.689c-4.537-2.535-9.426-6.79-11.898-11.642
	c-1.064-2.09-2.154-3.896-4.092-5.207c-1.31-0.887-2.822-1.257-4.215-1.949c-1.519-0.754-2.398-1.888-3.65-2.947
	c-2.67-2.26-6.297-4.645-9.734-5.063c-3.352-0.409-6.51-2.894-9.039-5.321c-3.05-2.927-6.955-4.37-10.724-5.961
	c-4.521-1.908-9.134-3.586-13.848-4.875c-9.444-2.583-10.666,1.428-10.666,8.35c0,12.219,0,12.219,0,18.908
	c0,21.688,0,342.216,0,366.382c61.946,0,529.28,0,565.573,0C679.568,505.453,679.049,183.041,679.049,183.041z"/>
</svg>
