<?xml version="1.0" encoding="utf-8"?>
<!-- Generator: Adobe Illustrator 16.0.0, SVG Export Plug-In . SVG Version: 6.00 Build 0)  -->
<!DOCTYPE svg PUBLIC "-//W3C//DTD SVG 1.1//EN" "http://www.w3.org/Graphics/SVG/1.1/DTD/svg11.dtd">
<svg version="1.1" id="Layer_1" xmlns="http://www.w3.org/2000/svg" xmlns:xlink="http://www.w3.org/1999/xlink" x="0px" y="0px"
	 width="792px" height="612px" viewBox="0 0 792 612" enable-background="new 0 0 792 612" xml:space="preserve">
<path fill="#B23125" d="M62,111.079c9.471,0,19.794,3.219,29.041,2.55c9.783-0.708,13.877-5.563,23.032,0.595
	c6.187,4.161,13.505,3.951,18.776,9.658c10.142,10.981,26.584,11.215,39.262,7.252c4.56,2.835,18.888,6.841,23.365,3.604
	c0.039-0.23-0.045-0.385-0.252-0.46c5.784,0.269,10.496,1.472,16.66,1.171c4.428-0.215,11.619,3.899,15.529,1.117
	c3.74-0.045,9.566-0.439,12.512-1.589c3.776-1.474,13.447,2.353,17.502,3.009c6.108,0.989,12.251,0.543,18.502,0.55
	c9.002,0.01,17.509-4.057,26.469-0.669c4.849,1.833,7.567,2.288,12.116,2.289c5.597,0.004,8.442,4.173,12.814,5.732
	c12.51,4.467,23.634,4.084,35.048,12.404c7.745,5.645,14.344,11.098,24.077,11.629c6.099,0.334,12.653-0.264,18.657-1.332
	c6.44-1.146,8.906,2.241,15.035,2.484c5.35,0.211,6.371,0.527,11.445,2.514c4.672,1.83,8.164,0.869,13.082,3.492
	c3.547,1.89,7.58,3.154,11.453,3.656c4.294,0.557,8.837-0.889,13.057-1.59c3.12-0.518,5.989,0.932,9.049,0.799
	c2.632-0.113,5.878-0.51,8.318-1.566c6.586-2.85,10.83-10.449,16.168-15.137c4.561-4.006,9.354-7.754,13.67-12.033
	c1.984-1.969,3.69-4.104,5.491-6.229c1.542-1.819,3.346-2.406,5.437-3.403c1.593-0.761,2.828-1.778,4.374-2.712
	c2.234-1.351,5.166-0.788,7.643-1.542c1.388-0.423,2.904-1.092,4.191-1.79c1.329-0.72,2.424-1.863,3.751-2.633
	c1.576-0.914,2.844-0.579,4.491-0.986c1.618-0.398,1.96-1.928,3.338-2.646c1.242-0.648,2.708-0.05,3.981-0.623
	c1.211-0.544,2.049-1.465,3.398-1.942c3.413-1.206,6.959-2.112,10.516-2.779c5.287-0.991,9.765-1.183,15.15-0.768
	c1.979,0.153,3.174,1.376,5.104,1.684c1.179,0.188,3.188-0.646,4.231-0.204c0.397,0.168,0.846,1.195,1.256,1.517
	c2.04,1.594,5.647,1.583,8.044,2.134c1.646,0.378,2.224,0.973,3.531,1.824c2.324,1.514,5.389,1.08,7.701,2.641
	c2.271,1.531,3.408,4.279,6.268,4.895c5.086,1.096,10.199,2.24,15.422,2.801c3.348,0.359,4.262,2.874,7.174,3.867
	c1.947,0.663,3.867-0.728,6.061-0.311c1.564,0.299,2.145,1.91,3.652,2.591c3.988,1.803,7.326,2.161,12.008,2.572
	c4.115,0.362,7.474,2.267,11.378,3.174c4.524,1.052,8.919,1.473,13.448,0.609c3.412-0.649,5.693-0.456,8.826,0.963
	c3.474,1.573,6.152,1.185,9.711,0.278c1.444-0.369,2.055-0.133,3.699,0.062c3.89,0.463,7.054-0.947,10.844-0.617
	c3.386,0.296,4.266,1.652,4.471,4.604c0.199,2.865,0,299.881,0,345.381c-52.584,0-631.711,1.304-668.979,1.304V111.079z"/>
</svg>
