<?xml version="1.0" encoding="utf-8"?>
<!-- Generator: Adobe Illustrator 16.0.0, SVG Export Plug-In . SVG Version: 6.00 Build 0)  -->
<!DOCTYPE svg PUBLIC "-//W3C//DTD SVG 1.1//EN" "http://www.w3.org/Graphics/SVG/1.1/DTD/svg11.dtd">
<svg version="1.1" id="Layer_1" xmlns="http://www.w3.org/2000/svg" xmlns:xlink="http://www.w3.org/1999/xlink" x="0px" y="0px"
	 width="792px" height="612px" viewBox="0 0 792 612" enable-background="new 0 0 792 612" xml:space="preserve">
<path fill="#37140F" d="M538.107,209.218c-0.873,0.674-1.859,1.2-2.801,1.984c-1.164,0.971-2.539,3.209-3.835,3.281
	c-0.734,0.042-2.778-0.943-3.566-1.284c-2.622-1.138-5.219-2.372-7.615-4.218c-1.682-1.294-1.99-1.011-3.834-1.049
	c-1.358-0.03-2.532-0.726-3.821-0.635c-1.046,0.072-1.432,0.277-2.487-0.289c-2.506-1.345-5.441-1.747-8.271-2.136
	c-3.224-0.441-5.702-1.853-8.507-3.983c-3.353-2.546-6.697-3.993-10.399-5.143c-3.396-1.054-7.169-2.396-9.437-6.394
	c-3.441-6.069-6.348-13.477-11.123-18.022c-4.104-3.902-9.091-5.551-13.286-9.325c-3.936-3.539-7.366-8.552-12.159-9.716
	c-5.586-1.355-11.456,0.47-16.967-1.646c-5.929-2.277-9.236-8.034-14.335-12.175c-3.729-3.026-7.769-4.231-11.703-6.583
	c-4.047-2.416-8.156-4.842-11.425-7.61c-3.119-2.641-5.161-6.776-8.113-9.57c-5.395-5.106-12.819-1.108-18.863-2.063
	c-5.643-0.892-11.954-1.928-16.928,1.594c-2.203,1.56-4.701,1.912-6.972,3.191c-1.874,1.057-1.306,3.315-3.688,3.839
	c-1.293,0.284-2.627,0.291-3.906,0.629c-1.092,0.288-2.494,1.015-3.518,1.146c-0.53,0.068-1.102-0.343-1.576-0.239
	c-0.484,0.104-0.943,0.73-1.333,0.992c-1.018,0.684-1.972,1.371-3.245,1.404c-0.324,1.062-1.479,2.915-2.58,3.548
	c-1.493,0.858-3.216,0.604-4.873,0.851c-2.706,0.403-4.828,3.23-7.447,4.018c-0.515,1.455-4.71,2.221-6.171,2.656
	c-1.161,0.345-2.262,0.742-3.448,0.533c-1.203-0.21-2.142-0.879-3.277-0.997c-1.438-0.148-3.121-0.19-4.524,0.214
	c-1.64,0.474-2.847,1.72-4.378,2.239c-1.584,0.538-3.27,0.063-4.625,0.896c-1.206,0.741-1.732,1.503-3.125,1.947
	c-0.964,0.309-2.128,0.672-2.988,1.159c-1.023,0.581-1.658,1.556-2.543,2.25c-2.121,1.662-5.631,1.039-8.046,0.377
	c-1.16-0.318-2.349-1.117-3.536-1.231c-1.348-0.131-2.288,0.867-3.572,1.011c-2.498,0.276-5.617,0.089-8.043-0.562
	c-1.44-0.386-2.627-0.934-4.113-0.699c-1.35,0.214-2.717,0.215-4.033,0.351c-1.605,0.167-3.088,0.093-4.655-0.088
	c-1.023-0.119-2.421,0.214-3.39-0.307c-3.227,1.082-6.436,0.777-9.928,1.153c-0.878,0.095-1.865,0.703-2.777,0.511
	c-0.531-0.111-0.892-0.702-1.408-0.808c-0.602-0.121-0.652,0.113-1.213,0.209c-1.85,0.318-3.57,0.325-5.425,0.141
	c-6.43-0.646-13.199,1.42-18.806,0.979c-6.143-0.485-10.094-4.604-17.023-3.84c-5.162,0.569-8.654,3.741-14,4.045
	c-3.979,0.225-7.607-1.431-11.514-1.471c-3.587-0.037-6.645-1.234-10.117-2.087c-2.533-0.622-4.032-0.25-6.615,0.303
	c-1.211,0.258-2.204-0.142-3.376-0.378c-1.603-0.319-2.45-0.001-3.978,0.571c-2.679,1.001-4.927,0.385-7.613,0.634
	c-1.379,0.127-2.475,0.242-3.912-0.045c-1.354-0.271-2.127-0.503-2.902-1.417c-1.266-1.493-3.045-2.009-5.123-2.396
	c-2.823-0.524-5.738,0.663-8.44,0.786c-1.22,0.056-1.743-0.586-2.933-0.169c-1.393,0.486-2.291,1.648-3.337,2.693
	c-0.022,2.105-2.33,1.823-3.496,2.901c-0.12,0.11-0.058,0.484-0.179,0.606c-0.152,0.15-0.467,0.315-0.607,0.47
	c-0.28,0.312-0.585,0.581-0.861,0.917c-0.748,0.912-1.06,1.878-2.094,2.562c-1.178,0.78-2.669,1.134-3.874,1.896
	c-1.073,0.678-1.765,1.667-3.056,1.86c-1.296,0.195-2.644-0.175-3.973,0.096c-1.599,0.325-2.586-0.713-4.223-0.597
	c-1.316,0.094-2.175,0.694-3.616,0.505c-0.987-0.13-1.767-0.297-2.72-0.006c-0.874,0.269-1.42,0.699-2.316,0.768
	c-1.222,0.093-2.217-0.85-3.372-0.737c-1.079,0.105-1.653,1.16-2.61,1.507c-0.637,0.23-1.449,0.154-2.135,0.294
	c-1.312,0.266-2.596,0.69-3.827,1.219c-2.612,1.121-31.153,1.812-31.153,4.656c0,12.546,0,18.046,0,30.998
	c0,11.02,0.365,21.665,0,32.73c-0.328,9.925,0,261.461,0,277.317c105.473,0,727.473,0,771.29,0c0-55.356,0.538-351.151,0-364.609
	c-0.401-10.021-5.579-14.471-11.654-17.834c-3.997-2.212-7.748-1.51-11.715,0.341c-1.701,0.794-3.481,1.98-5.209,2.532
	c-1.735,0.554-4.06-0.66-5.462,1.297c-1.104-0.105-2.263,0.717-3.256,0.302c-0.881,1.115-2.207,1.096-3.416,1.213
	c-1.464,0.144-1.912,1.361-3.075,1.502c-1.781,0.217-2.313-1.686-4.209-0.476c-2.572,1.644-4.132,2.717-6.897,3.032
	c-3.149,0.357-5.987,2.295-9.234,1.868c-2.277-0.3-4.383,1.259-6.331,2.693c-0.964,0.71-1.99,1.778-3.043,2.197
	c-1.173,0.466-1.892-0.633-2.97-0.178c-1.056,0.443-1.412,2.524-2.487,2.975c-1.205,0.504-2.759-0.526-4.037-0.534
	c-0.989-0.006-2.714,1.581-3.342,0.896c-1.841,2.558-3.896,1.215-6.096,1.335c-1.902,0.104-3.812,0.107-5.68,0.689
	c-1.475,0.461-2.783,1.454-4.307,1.915c-3.114,0.946-6.162,3.887-9.079,5.766c-3.334,2.148-6.837,3.746-10.456,4.629
	c-1.561,0.382-3.105,1.304-4.675,1.684c-2.169,0.525-2.341-0.352-3.829,2.272c-0.779,1.373-1.99,2.81-3.329,2.872
	c-0.714,0.034-1.497-0.829-2.175-0.909c-0.792-0.092-1.416,0.351-2.153,0.601c-1.544,0.524-3.113,0.662-4.625,1.212
	c-1.655,0.603-3.057,1.632-4.726,1.926c-1.688,0.3-3.475-0.01-5.188,0.229c-2.486,0.346-4.845,1.847-6.975,2.803
	c-3.563,1.6-7.668,3.446-11.435,3.587c-2.062,0.078-3.981-1.958-6.062-1.5c-1.627,0.358-2.87,2.127-4.491,2.241
	c-2.161,0.15-4.122-0.832-6.347-0.261c-1.733,0.447-3.55,0.881-5.341,1.222c-1.369,0.263-2.55,0.668-3.824,1.586
	c-1.554,1.119-2.802,1.69-4.497,2.501c-1.565,0.749-2.161,2.12-3.8,2.742c-1.187,0.449-2.395,0.971-3.667,1.632
	c-2.247,1.165-4.143,2.47-6.537,2.501c-2.273,0.029-3.983,1.298-6.053,2.535c-1.534,0.915-3.206,1.812-4.827,2.332
	c-1.381,0.445-2.941,0.133-4.27,0.84c-0.598,0.319-2.047,0.776-2.479,1.387c-0.649,0.918-0.539,2.342-1.058,3.354
	c-0.671,1.311-1.949,1.896-2.586,3.369c-0.661,0.518-1.216,0.994-1.878,1.505c-1.648,1.267-1.724,1.034-1.692,3.798
	c0.034,2.916-0.47,3.843-2.032,5.768C538.909,208.546,538.521,208.898,538.107,209.218z"/>
</svg>
