<?xml version="1.0" encoding="utf-8"?>
<!-- Generator: Adobe Illustrator 16.0.0, SVG Export Plug-In . SVG Version: 6.00 Build 0)  -->
<!DOCTYPE svg PUBLIC "-//W3C//DTD SVG 1.1//EN" "http://www.w3.org/Graphics/SVG/1.1/DTD/svg11.dtd">
<svg version="1.1" id="Layer_1" xmlns="http://www.w3.org/2000/svg" xmlns:xlink="http://www.w3.org/1999/xlink" x="0px" y="0px"
	 width="792px" height="612px" viewBox="0 0 792 612" enable-background="new 0 0 792 612" xml:space="preserve">
<path fill="#9D2520" d="M800.859,115.47c-4.035,0.554-14.441-4.284-18.883-4.907c-4.785-0.672-9.709-0.152-14.52,0.35
	c-2.262,0.236-4.578,0.679-6.844,0.555c-2.113-0.117-4.236-0.701-6.365-0.604c-2.332,0.109-4.318,2.083-6.668,2.369
	c-1.354,0.164-2.93-0.136-4.275-0.077c-3.631,0.157-7.215,1.394-10.766,0.71c-4.67-0.9-9.156-2.389-13.771-3.52
	c-1.404-0.344-3.092-0.932-4.549-0.846c-1.115,0.066-1.816,0.633-2.947,0.69c-2.047,0.103-4.209-2.093-6.277-1.245
	c-1.355,0.554-1.434,1.865-2.965,2.093c-0.576,0.087-1.158-0.292-1.65-0.22c-0.658,0.094-1.49,0.676-2.061,0.973
	c-1.184-0.455-3.707,0.934-5.191,1.117c-1.857,0.229-3.465,0.787-5.244,1.182c-1.598,0.354-2.967,1.463-4.535,1.771
	c-1.9,0.375-2.832,0.397-4.641,1.371c-1.363,0.734-2.846,1.117-4.254,1.732c-3.578,1.562-6.912,3.752-10.184,5.989
	c-6.668,4.558-13.336,9.354-21.229,10.444c-5.434,0.752-10.822,1.936-16.229,2.928c-2.713,0.497-5.434,0.957-8.164,1.291
	c-1.094,0.133-2.795-0.076-3.807,0.372c-0.832,0.369-1.041,1.259-1.861,1.647c-0.77,0.363-1.896-0.124-2.645-0.332
	c-2.131-0.594-3.188-1.096-5.301-0.936c-1.746,0.133-3.812-0.445-5.621-0.895c-1.529-0.379-3.914-1.746-5.465-0.451
	c-0.002,0.001-1.957-0.299-2.201-0.279c-1.012,0.084-1.994,0.484-2.984,0.707c-1.689,0.38-3.268,0.244-4.947,0.396
	c-5.262,0.479-10.139,3.977-15.467,3.216c-1.285-0.183-2.332-1.167-3.57-1.466c0.004-0.09,0.047-0.143,0.127-0.158
	c-3.139,0.617-5.549-1.701-8.803-0.258c-1.01,0.447-1.807,1.336-2.812,1.748c-1.52,0.624-3.25,0.274-4.822,0.363
	c-1.279,0.073-1.414-0.082-2.617,0.51c-0.963,0.472-1.922,1.266-2.996,1.396c-1.645,0.198-3.166-0.9-4.783-0.873
	c-1.711,0.029-2.119,1.326-3.482,1.854c-1.15,0.446-3.131-0.111-4.328-0.16c-3.498-0.145-6.342,2.135-9.699,2.455
	c-3.439,0.33-6.496,1.697-9.912,2.266c-2.721,0.449-5.438-0.419-8.129-0.557c-1.926-0.1-2.674-0.781-4.242-1.591
	c-1.4-0.724-2.389-0.593-3.854-0.554c-1.73,0.047-3.795-0.391-5.51,0.114c-0.943,0.276-1.336,0.693-2.35,0.882
	c-1.039,0.193-1.605,0.151-2.523,0.5c-1.332,0.507-2.547,1.376-3.785,2.033c-2.24,1.188-3.244-0.457-5.303-0.723
	c-1.963-0.255-4.172,0.078-5.701-1.514c-1.33-1.383-1.719-2.648-3.527-3.613c-3.594-1.912-8.34-3.16-11.965-0.34
	c-1.01,0.786-1.891,1.67-2.871,2.475c-1.115,0.92-1.115,1.71-1.99,2.68c-1.766,1.952-4.484,1.108-6.529,2.254
	c-2.227,1.249-4.412,3.469-6.582,4.989c-2.324,1.631-4.736,3.326-7.369,4.252c-1.115,0.393-2.279,0.68-3.447,0.634
	c-0.521-0.021-2.998-1.087-3.191-0.981c-6.281,3.428-6.742,5.369-13.439,4.158c-6.346-1.146-11.588-0.541-17.994-0.447
	c-3.82,0.055-7.602-0.38-11.404-0.605c-1.753-0.105-2.344,0.493-3.879,1.004c-1.817,0.604-3.629-0.576-5.336-1.004
	c-1.092-0.273-2.386-0.57-3.542-0.412c-1.251,0.172-1.951-0.105-3.169-0.252c-2.21-0.266-4.254-0.031-6.432,0.73
	c-1.799,0.629-3.643,0.279-5.486,0.6c-1.512,0.264-3.307,0.713-4.762,0.037c-0.934-0.437-1.432-1.352-2.164-2.066
	c-2.098-2.045-5.336-4.266-8.17-4.75c-2.665-0.455-5.271,0.238-7.938-0.096c-1.325-0.164-2.604,0.324-3.902,0.179
	c-1.121-0.126-2.08-1.175-3.195-1.312c-1.172-0.144-2.264,0.315-3.365,0.117c-2.672-0.483-5.438-1.469-8.078-0.981
	c-1.187,0.22-2.375-0.075-3.512,0.132c-1.106,0.201-2.087,0.758-3.182,0.963c-1.34,0.251-2.474,1.031-3.77,1.406
	c-0.974,0.281-1.971,0.235-2.943,0.549c-3.073,0.991-5.823,2.695-9.034,3.224c-2.184,0.358-4.624,0.661-6.811,0.641
	c-0.931-0.008-1.519-0.32-2.413-0.538c-1.049-0.254-2.508-0.294-3.541,0.141c-1.343,0.566-2.18,1.281-3.668,1.396
	c-0.925,0.071-0.833,0.097-1.631,0.413c-0.637,0.252-1.188,0.207-1.799,0.275c-0.48,0.054-1.014,0.215-1.521,0.287
	c-0.883,0.128-1.912-0.045-2.763,0.141c-1.407,0.308-2.412,1.229-3.943,1.229c-1.708,0-2.273,0.797-3.725,1.64
	c-1.966,1.145-4.036,0.887-6.109,1.126c-0.84,0.097-1.208,0.278-1.874,0.885c-1.043,0.948-1.438,1.312-2.717,1.792
	c-1.102,0.414-1.799,1.725-2.988,2.199c-0.576,0.912-0.437,1.254-1.51,1.916c-0.836,0.516-1.326,1.066-2.048,1.788
	c-0.657,0.658-1.233,1.351-2.071,1.78c-0.904,0.461-2.15,0.374-3.027,0.996c-0.967,0.686-1.221,1.976-1.979,2.764
	c-0.572,0.594-1.68,0.65-2.406,0.905c-1.645,0.577-2.982,1.984-4.631,2.506c-1.222,0.388-2.266,0.182-3.42,0.933
	c-1.445,0.939-2.199,1.873-3.975,1.883c-1.471,0.01-2.893-0.496-4.375-0.377c-0.939,0.076-1.875,0.558-2.934,0.523
	c-1.301-0.042-2.404-0.789-3.658-0.873c-1.164-0.078-2.503,0.942-3.57,0.365c-0.543-0.295-0.781-0.906-1.279-1.189
	c-0.621-0.354-1.421-0.613-2.135-0.502c-1.156,0.182-1.658,0.504-2.889,0.337c-0.945-0.13-2.432-0.685-3.186-0.682
	c-0.018-0.016-0.035-0.031-0.053-0.046c-1.128,1.086-2.765,0.138-3.998,0.016c-2.541-0.252-5.005-1.166-7.417-1.992
	c-2.171-0.742-3.675-1.891-5.657-3.059c-1.244-0.733-2.271-1.053-3.342-2.396c-1.104-1.389-1.51-2.002-3.147-2.811
	c-1.103-0.545-2.357-0.363-3.411-0.952c-1.213-0.679-1.639-2.194-2.571-3.259c-0.81-0.924-2.203-1.221-3.348-1.665
	c-2.9-1.124-6.145-2.055-8.921-3.444c-2.754-1.381-5.619-2.108-8.53-3.146c-4.589-1.635-8.722-4.362-13.036-6.648
	c-2.102-1.111-4.409-2.414-6.727-2.92c-1.54-0.335-3.892-0.211-4.822-1.93c-1.325,0.403-3.41-0.494-4.699-0.882
	c-1.68-0.507-2.719-2.127-4.333-2.683c-2.329-0.803-5.169-0.343-6.933-2.261c-0.633-0.691-0.422-0.521-1.294-0.901
	c-0.589-0.256-1.235-0.469-1.802-0.765c-0.572-0.298-0.943-0.432-1.453-0.706c-0.505-0.271-1.127-0.812-1.625-1.034
	c-0.676-0.303-1.75,0.062-2.611,0.178c-1.173,0.158-2.283,0.078-3.566,0.212c-1.25,0.13-1.276-0.691-2.158-0.894
	c-0.723-0.166-1.473,0.051-2.229-0.086c-2.199-0.398-4.303-1.078-6.518-1.449c-1.639-0.273-2.219-0.955-3.479-1.4
	c-1.729-0.611-3.502,0.14-5.286-0.335c-1.358-0.362-2.272-1.822-3.964-1.825c-1.295-0.002-2.492,1.525-3.757,1.382
	c-0.894-0.102-1.152-1.032-1.75-1.173c-1.022-0.238-0.982,0.146-1.944,0.215c-3.207,0.223-5.773,0.439-8.975,0.074
	c-0.309-0.035-57.684-4.27-47.434-2.873c0,23.812,0,346.988,0,367.586c0.529,0.133,799.105-0.148,799.158,0
	C800.859,450.416,800.859,115.47,800.859,115.47z"/>
</svg>
