<?xml version="1.0" encoding="utf-8"?>
<!-- Generator: Adobe Illustrator 16.0.0, SVG Export Plug-In . SVG Version: 6.00 Build 0)  -->
<!DOCTYPE svg PUBLIC "-//W3C//DTD SVG 1.1//EN" "http://www.w3.org/Graphics/SVG/1.1/DTD/svg11.dtd">
<svg version="1.1" id="_x31_" xmlns="http://www.w3.org/2000/svg" xmlns:xlink="http://www.w3.org/1999/xlink" x="0px" y="0px"
	 width="700px" height="500px" viewBox="0 0 700 500" enable-background="new 0 0 700 500" xml:space="preserve">
<g>
	<g>
		<path fill="#00403F" d="M511,83.5c0.038,0,0.038-5,0-5S510.962,83.5,511,83.5L511,83.5z"/>
	</g>
</g>
<path fill="#3B0800" d="M702.782,139c-0.716-9.219-5.562-13.469-11.223-16.701c-3.877-2.212-7.515-1.51-11.36,0.341
	c-1.65,0.794-3.377,1.98-5.052,2.532c-1.684,0.554-3.937-0.66-5.297,1.297c-1.071-0.105-2.194,0.717-3.157,0.302
	c-0.854,1.115-2.141,1.096-3.313,1.213c-1.419,0.144-1.854,1.361-2.981,1.502c-1.728,0.217-2.243-1.686-4.082-0.476
	c-2.494,1.644-4.007,2.717-6.688,3.032c-3.055,0.357-5.807,2.295-8.955,1.868c-2.209-0.3-4.25,1.259-6.14,2.693
	c-0.935,0.71-1.93,1.778-2.95,2.197c-1.138,0.466-1.835-0.633-2.881-0.178c-1.022,0.443-1.369,2.524-2.412,2.975
	c-1.168,0.504-2.675-0.526-3.914-0.534c-0.959-0.006-2.633,1.581-3.241,0.896c-1.785,2.558-3.777,1.215-5.911,1.335
	c-1.845,0.104-3.696,0.107-5.508,0.689c-1.43,0.461-2.699,1.454-4.176,1.915c-3.021,0.946-5.977,3.887-8.805,5.766
	c-3.233,2.148-6.63,3.746-10.14,4.629c-1.514,0.382-3.012,1.304-4.534,1.684c-2.103,0.525-2.27-0.352-3.713,2.272
	c-0.756,1.373-1.93,2.81-3.228,2.872c-0.692,0.034-1.452-0.829-2.109-0.909c-0.769-0.092-1.373,0.351-2.088,0.601
	c-1.498,0.524-3.02,0.662-4.486,1.212c-1.604,0.603-2.963,1.632-4.581,1.926c-1.638,0.3-3.37-0.01-5.032,0.229
	c-2.412,0.346-4.698,1.847-6.764,2.803c-3.456,1.6-7.437,3.446-11.089,3.587c-1.999,0.078-3.86-1.958-5.878-1.5
	c-1.577,0.358-2.783,2.127-4.354,2.241c-2.097,0.15-3.998-0.832-6.155-0.261c-1.682,0.447-3.442,0.881-5.18,1.222
	c-1.327,0.263-2.473,0.668-3.708,1.586c-1.507,1.119-2.717,1.69-4.361,2.501c-1.518,0.749-2.096,2.12-3.685,2.742
	c-1.151,0.449-2.322,0.971-3.557,1.632c-2.178,1.165-4.017,2.47-6.339,2.501c-2.205,0.029-3.862,1.298-5.869,2.535
	c-1.488,0.915-3.109,1.812-4.682,2.332c-1.339,0.445-2.853,0.133-4.141,0.84c-0.579,0.319-1.984,0.776-2.404,1.387
	c-0.63,0.918-0.522,2.342-1.025,3.354c-0.65,1.311-1.89,1.896-2.508,3.369c-0.642,0.518-1.179,0.994-1.821,1.505
	c-1.599,1.267-1.671,1.034-1.641,3.798c0.033,2.916-0.456,3.843-1.971,5.768c-0.337,0.426-0.713,0.778-1.114,1.098
	c-0.847,0.674-1.803,1.2-2.716,1.984c-1.129,0.971-2.462,3.209-3.719,3.281c-0.712,0.042-2.694-0.943-3.458-1.284
	c-2.544-1.138-5.062-2.372-7.385-4.218c-1.631-1.294-1.931-1.011-3.719-1.049c-1.317-0.03-2.455-0.726-3.705-0.635
	c-1.015,0.072-1.389,0.277-2.412-0.289c-2.431-1.345-5.277-1.747-8.021-2.136c-3.126-0.441-5.529-1.853-8.249-3.983
	c-3.252-2.546-6.495-3.993-10.085-5.143c-3.294-1.054-6.952-2.396-9.151-6.394c-3.337-6.069-6.155-13.477-10.786-18.022
	c-3.98-3.902-8.816-5.551-12.884-9.325c-3.817-3.539-7.145-8.552-11.792-9.716c-5.417-1.355-11.109,0.47-16.453-1.646
	c-5.75-2.277-8.957-8.034-13.901-12.175c-3.616-3.026-7.534-4.231-11.35-6.583c-3.924-2.416-7.909-4.842-11.079-7.61
	c-3.025-2.641-5.005-6.776-7.868-9.57c-5.231-5.106-12.431-1.108-18.292-2.063c-5.472-0.892-11.592-1.928-16.415,1.594
	c-2.137,1.56-4.56,1.912-6.761,3.191c-1.817,1.057-1.266,3.315-3.577,3.839c-1.254,0.284-2.547,0.291-3.788,0.629
	c-1.059,0.288-2.418,1.015-3.411,1.146c-0.514,0.068-1.068-0.343-1.528-0.239c-0.47,0.104-0.915,0.73-1.293,0.992
	c-0.987,0.684-1.912,1.371-3.147,1.404c-0.314,1.062-1.434,2.915-2.502,3.548c-1.448,0.858-3.119,0.604-4.726,0.851
	c-2.624,0.403-4.682,3.23-7.222,4.018c-0.5,1.455-4.568,2.221-5.984,2.656c-1.126,0.345-2.193,0.742-3.344,0.533
	c-1.167-0.21-2.077-0.879-3.178-0.997c-1.394-0.148-3.027-0.19-4.388,0.214c-1.59,0.474-2.761,1.72-4.246,2.239
	c-1.536,0.538-3.17,0.063-4.485,0.896c-1.17,0.741-1.68,1.503-3.03,1.947c-0.935,0.309-2.064,0.672-2.898,1.159
	c-0.993,0.581-1.608,1.556-2.466,2.25c-2.057,1.662-5.46,1.039-7.802,0.377c-1.125-0.318-2.277-1.117-3.429-1.231
	c-1.307-0.131-2.219,0.867-3.464,1.011c-2.423,0.276-5.447,0.089-7.8-0.562c-1.397-0.386-2.547-0.934-3.989-0.699
	c-1.308,0.214-2.634,0.215-3.911,0.351c-1.557,0.167-2.994,0.093-4.514-0.088c-0.992-0.119-2.348,0.214-3.287-0.307
	c-3.129,1.082-6.241,0.777-9.627,1.153c-0.852,0.095-1.81,0.703-2.694,0.511c-0.515-0.111-0.865-0.702-1.365-0.808
	c-0.583-0.121-0.633,0.113-1.176,0.209c-1.793,0.318-3.462,0.325-5.261,0.141c-6.235-0.646-12.8,1.42-18.237,0.979
	c-5.957-0.485-9.788-4.604-16.508-3.84c-5.006,0.569-8.393,3.741-13.576,4.045c-3.859,0.225-7.377-1.431-11.166-1.471
	c-3.479-0.037-6.443-1.234-9.811-2.087c-2.457-0.622-3.91-0.25-6.415,0.303c-1.174,0.258-2.138-0.142-3.274-0.378
	c-1.554-0.319-2.376-0.001-3.857,0.571c-2.597,1.001-4.777,0.385-7.383,0.634c-1.337,0.127-2.399,0.242-3.793-0.045
	c-1.314-0.271-2.063-0.503-2.814-1.417c-1.228-1.493-2.953-2.009-4.968-2.396c-2.738-0.524-5.565,0.663-8.185,0.786
	c-1.183,0.056-1.69-0.586-2.844-0.169c-1.35,0.486-2.221,1.648-3.235,2.693c-0.022,2.105-2.26,1.823-3.391,2.901
	c-0.116,0.11-0.056,0.484-0.173,0.606c-0.147,0.15-0.453,0.315-0.589,0.47c-0.272,0.312-0.567,0.581-0.835,0.917
	c-0.726,0.912-1.027,1.878-2.03,2.562c-1.142,0.78-2.588,1.134-3.757,1.896c-1.041,0.678-1.711,1.667-2.963,1.86
	c-1.256,0.195-2.563-0.175-3.853,0.096c-1.55,0.325-2.507-0.713-4.095-0.597c-1.276,0.094-2.109,0.694-3.507,0.505
	c-0.957-0.13-1.713-0.297-2.637-0.006c-0.847,0.269-1.377,0.699-2.247,0.768c-1.185,0.093-2.149-0.85-3.27-0.737
	c-1.047,0.105-1.604,1.16-2.531,1.507c-0.618,0.23-1.406,0.154-2.07,0.294c-1.272,0.266-2.518,0.69-3.711,1.219
	c-2.533,1.121-30.211,1.812-30.211,4.656c0,12.546,0,18.046,0,30.998c0,11.02,0.354,21.665,0,32.73
	c-0.318,9.925,0,261.461,0,277.317c98.295,0,659.209,0,740.493,0c3.296,0,5.804,0,7.46,0h36.315V139H702.782z"/>
</svg>
