<?xml version="1.0" encoding="utf-8"?>
<!-- Generator: Adobe Illustrator 16.0.0, SVG Export Plug-In . SVG Version: 6.00 Build 0)  -->
<!DOCTYPE svg PUBLIC "-//W3C//DTD SVG 1.1//EN" "http://www.w3.org/Graphics/SVG/1.1/DTD/svg11.dtd">
<svg version="1.1" id="_x31_" xmlns="http://www.w3.org/2000/svg" xmlns:xlink="http://www.w3.org/1999/xlink" x="0px" y="0px"
	 width="700px" height="500px" viewBox="0 0 700 500" enable-background="new 0 0 700 500" xml:space="preserve">
<g>
	<g>
		<path fill="#00403F" d="M511,83.5c0.038,0,0.038-5,0-5S510.962,83.5,511,83.5L511,83.5z"/>
	</g>
</g>
<path fill="#881700" d="M499.171,179c-4.828-0.325-10.731-2.778-15.545-3.699c-10.545-2.018-14.533-5.171-22.159-12.657
	c-3.616-3.548-8.555-3.898-13.12-4.977c-4.604-1.086-8.232-4.171-12.858-5.101c-2.454-0.494-5.382-1.573-7.151-3.092
	c-2.038-1.751-4.575-2.26-6.706-3.527c-1.147-0.684-2.227-1.577-3.584-2.081c-2.545-0.946-4.019-2.691-6.588-3.735
	c-3.309-1.347-6.771-2.334-10.324-2.57c-2.303-0.152-4.834-0.064-7.045,0.776c-0.836,0.317-1.517,0.94-2.323,1.265
	c-1.024,0.412-2.219,0.167-3.167,0.823c-1.863,1.291-0.806,1.372-3.141,0.906c-1.026-0.205-1.896,0.252-3.023,0.24
	c-1.367-0.015-2.75-0.536-4.033-0.992c-0.999-0.356-1.544-0.72-2.396-1.425c-1.254-1.036-1.784-0.605-3.357-1.105
	c-1.32-0.42-2.431-1.449-3.893-1.705c-2.752-0.482-5.034-2.186-7.767-2.422c-3.558-0.306-7.616,0.416-10.847-1.53
	c-2.712-1.634-4.674-5.003-7.325-6.937c-2.351-1.715-4.915-3.643-7.43-5.016c-2.72-1.485-6.084-0.601-8.688-2.449
	c-1.887-0.086-3.418-1.307-5.44-1.408c-2.524-0.124-5.09-0.101-7.569,0.418c-0.875,0.185-1.101,0.365-1.862,0.803
	c-1.858,1.066-2.709,0.902-4.753,0.996c-3.184,0.146-5.722,2.912-8.836,3.123c-1.199,0.08-2.271-0.333-3.49-0.143
	c-1.705,0.268-3.44,0.984-5.109,1.464c-3.542,1.019-6.86,1.509-10.487,1.86c-3.07,0.297-5.679,2.337-8.73,2.619
	c-2.464,0.229-4.847,0.479-7.274,0.525c-3.026,0.059-6.619,1.894-9.426,3.119c-3.204,1.398-7.041,1.048-10.289,2.429
	c-2.853,1.212-6.228,3.187-9.362,2.915c-1.197-0.104-2.083-0.839-3.221-1.104c-1.733-0.402-3.711,0.207-5.428,0.568
	c-2.26,0.477-4.615,0.703-6.911,0.773c-2.162,0.065-3.923-0.418-5.956,0.774c-1.942,1.139-2.965,1.228-5.115,1.104
	c-1.992-0.113-3.674,0.256-5.325,1.5c-1.003,0.756-1.06,1.035-2.269,1.076c-1.443,0.051-2.293,0.506-3.632,0.842
	c-3.197,0.801-5.824-0.633-8.922-0.437c-1.214,0.077-2.244,1.151-3.487,1.313c-1.575,0.206-3.203,0.531-4.802,0.754
	c-0.999,0.139-2.169-0.164-3.176-0.291c-0.473-0.061-0.971-0.307-1.431-0.338c-2.264-0.154-3.926,1.254-6.146,1.453
	c-2.033,0.182-4.12-0.129-6.125,0.566c-0.684,0.237-1.171,0.914-1.966,1.035c-0.915,0.139-1.599-0.426-2.577-0.131
	c-0.992,0.301-1.427,0.93-2.504,0.912c-0.7-0.011-1.396-0.41-2.075-0.522c-1.86-0.309-3.066,0.915-4.9,0.588
	c-1.284-0.229-1.799-0.681-3.055,0.003c-0.597,0.324-0.966,1.102-1.561,1.463c-1.085,0.659-2.987,1.463-4.351,1.561
	c-1.406,0.102-2.698-0.784-4.065-0.213c-3.671,1.534-5.256,5.762-9.459,6.425c-4.928,0.777-9.932,0.25-14.845,1.137
	c-6.909,1.248-13.967,2.964-21.009,3.895c-8.699,1.146-15.68-2.2-24.118-2.141c-1.552,0.01-1.083,0.754-1.759,1.521
	c-3.948-0.303-7.92,0.361-11.874,0.168c-4.291-0.211-6.914-2.87-10.85-3.916c-1.105-0.295-1.962,0.274-3.137,0.237
	c-2.055-0.065-4.91-1.193-6.804-1.786c-2.511-0.785-5.449-0.669-7.847-2.239c-0.994-0.65-1.884-1.239-3.02-1.931
	c-1.245-0.754-1.629-1.225-3.121-1.321c-1.276-0.08-1.917,0.008-3.156-0.689c-4.517-2.535-9.384-6.79-11.845-11.642
	c-1.06-2.09-2.145-3.896-4.074-5.207c-1.304-0.887-2.81-1.257-4.196-1.949c-1.512-0.754-2.388-1.888-3.634-2.947
	c-2.658-2.26-6.269-4.645-9.691-5.063c-3.336-0.409-6.48-2.894-8.999-5.321c-3.036-2.927-6.924-4.37-10.676-5.961
	c-2.044-0.867-4.111-1.678-6.195-2.435v391.2c100.6,0,474.248,0,537.818,0V500h246.752V179H499.171z"/>
</svg>
