<?xml version="1.0" encoding="utf-8"?>
<!-- Generator: Adobe Illustrator 16.0.0, SVG Export Plug-In . SVG Version: 6.00 Build 0)  -->
<!DOCTYPE svg PUBLIC "-//W3C//DTD SVG 1.1//EN" "http://www.w3.org/Graphics/SVG/1.1/DTD/svg11.dtd">
<svg version="1.1" id="_x31_" xmlns="http://www.w3.org/2000/svg" xmlns:xlink="http://www.w3.org/1999/xlink" x="0px" y="0px"
	 width="700px" height="500px" viewBox="0 0 700 500" enable-background="new 0 0 700 500" xml:space="preserve">
<g>
	<g>
		<path fill="#00403F" d="M511,83.5c0.038,0,0.038-5,0-5S510.962,83.5,511,83.5L511,83.5z"/>
	</g>
</g>
<path fill="#1E0400" d="M739.337,606.48c-0.414-11.797,0-366.668,0-382.404c0-11.596,0-14.264,0-28.625c0-9.979,0-15.332,0-24.596
	c0-22.375,0-30.355,0-56.617c-11.836-0.006-23.215-25.361-34.167-25.686c0.518,0.195-1.006-0.281-1.919-0.988
	c-7.307-5.602-17.551,1.779-26.061,1.072c-8.279-0.689-15.097,6.867-23.31,11.143c-6.052,3.148-10.383,9.098-17.056,11.135
	c-5.382,1.645-10.074,3.484-14.768,7.107c-6.7,5.176-13.024,4.041-18.719,7.736c-4.838,3.141-11.255,5.891-12.503,7.418
	c-11.774,15.631-30.122,9.459-43.997,12.295c-5.429,1.109-7.491,3.008-12.803,9.643c-4.958,6.197-9.964,12.412-15.296,16.053
	c-5.908,4.035-11.822,8.039-17.755,11.932c-2.172,1.424-2.971,2.34-4.537,5.148c-1.704,3.053-3.696,2.039-5.798,3.068
	c-1.739,0.848-3.487,0.389-4.959,1.629c-3.776,3.184-8.166,8.617-12.265,9.613c-3.96,0.965-7.722,1.639-11.654,3.602
	c-0.588,0.293-1.375,0.418-1.916,0.943c-0.15,0.145-0.976,1.523-0.994,1.531c-0.969,0.42-1.551-0.994-2.646-1.268
	c-1.243-0.311-0.56,0.088-1.402,0.924c-1.103,1.096-2.274,2.406-3.663,0.844c-0.723,0.91-1.561,2.693-2.333,2.432
	c-0.817,2.998-2.499,2.096-3.929,3.154c-3.934,2.916-7.933,6.547-12.123,4.928c-2.105-0.814-3.274,0.141-5.238,1.338
	c-2.191,1.336-4.57,1.463-6.839,1.9c-3.704,0.711-7.43,0.02-11.14,0.418c-3.26,0.35-6.323,1.674-9.6,0.629
	c-6.77-2.16-12.521-10.594-19.065-14.201c-1.379-0.762-2.236-0.414-3.513-0.305c-1.639,0.139-2.853-1.111-4.419-1.887
	c-1.833-0.91-3.752-1.338-5.61-2.125c-2.315-0.98-4.259-2.455-6.658-4.314c-1.127-0.875-2.469-1.293-3.63-2.361
	c-0.842-0.771-1.454-1.721-2.165-2.857c-0.789-1.256-0.759-1.234-1.535-2.021c-3.102-3.148-6.634-5.395-9.499-9.062
	c-3.118-3.992-6.205-8.758-9.856-10.699c-6.004-3.191-11.154-1.424-16.907,2.248c-4.919,3.139-8.19,4.447-13.185,0.414
	c-3.159-2.553-5.847-7-9.178-8.756c-3.949-2.082-8.104-0.258-12.041-2.504c-2.269-1.293-4.249-5.033-6.518-6.066
	c-4.718-2.148-10,2.219-15.966-1.115c-7.232-4.043-14.17-9.219-21.514-12.604c-5.203-2.396-11.627-3.283-16.672-8.533
	c-6.277-6.537-7.569-19.547-14.401-26.131c-12.576-2.805-25.093-14.248-36.411-26.625c-5.365-5.867-11.83-11.459-17.183-18.559
	c-3.708-4.918-8.213-14.826-12.785-17.566c-5.088-3.053-11.68-3.34-17.056-5.658c-7.856-3.385-17.333-5.443-25.495-4.271
	c-10.568,1.52-23.79,19.793-33.331,28.17c-8.949,7.857-17.554,20.416-25.815,32.16c-4.254,6.047-7.664,9.303-12.152,12.504
	c-7.379,5.262-7.163,11.943-12.185,22.875c-8.278,18.021-22.13,13.174-31.884,22.535c-8.924,8.561-21.879,13.326-28.554,27.803
	c0.175,3.32-0.232,7.279,0,10.643c0,16.754,0,32.086,0,52.148c0,14.572,0,344.18,0,359.271H739.337z"/>
</svg>
