<?xml version="1.0" encoding="utf-8"?>
<!-- Generator: Adobe Illustrator 16.0.0, SVG Export Plug-In . SVG Version: 6.00 Build 0)  -->
<!DOCTYPE svg PUBLIC "-//W3C//DTD SVG 1.1//EN" "http://www.w3.org/Graphics/SVG/1.1/DTD/svg11.dtd">
<svg version="1.1" id="_x31_" xmlns="http://www.w3.org/2000/svg" xmlns:xlink="http://www.w3.org/1999/xlink" x="0px" y="0px"
	 width="700px" height="500px" viewBox="0 0 700 500" enable-background="new 0 0 700 500" xml:space="preserve">
<path fill="#560B00" d="M689.071,216c-7.577-6.465-16.179-16.792-24.28-14.148c-0.541-0.954-0.75-1.592-1.387-2.054
	c-0.029,0.227-0.018,0.42,0.012,0.596c-0.064-0.147-0.121-0.307-0.193-0.444c0.189,1.141,0.434,2.242,0.734,3.304l-10.666-14.658
	c-7.041,2.457-14.49,6.225-21.219,6.04c-6.555-0.182-12.09-2.328-18.6-3.597c-9-1.758-18.535,2.67-27.512,2.38
	c-8.473-0.272-15.479-9.361-24.166-12.216c-8.268-2.716-17.039-2.246-25.314-3.605c-7.328-1.202-14.369-6.185-21.736-8.547
	c-14.492-4.646-30.748-8.469-45.438-8.551c-7.148-0.039-13.744,0.156-20.717-0.948c-6.654-1.058-9.906,1.861-15.416,4.944
	c-6.766,3.786-14.895,2.917-21.918,3.338c-7.148,0.428-12.867,3.592-19.98,5.827c-10.615,3.337-23.498,3.002-33.484-4.306
	c-4.871-3.565-7.51-7.469-13.166-7.018c-6.871,0.546-7.205,4.985-11.354,12.853c-6.348,12.042-13.85,5.861-22.094,10.08
	c-4.908,2.512-9.072,7.612-13.701,9.129c-5.777,1.893-11.598-1.709-17.52-0.917c-2.029,0.271-3.768,0.946-5.33,1.902
	c-6.07-0.445-12.258-2.6-17.387-4.078c-13.557-3.906-27.996-10.165-42.276-10.34c-6.784-0.084-13.405-1.199-20.241-0.937
	c-3.354,0.128-6.756,0.603-10.188,1.675c-3.07,0.958-6.685,3.069-9.666,3.118c-0.085-0.294-0.202-0.576-0.273-0.854
	c-2.324,1.664-4.166,1.104-6.439,1.809c-0.889,0.277-1.533,1.084-2.433,0.905c-1.714-0.341-1.743-1.458-3.44-0.845
	c-3.316,1.199-6.738,0.978-10.041,3.341c-1.352,0.967-2.396,2.701-3.766,3.277c-1.904,0.8-4.287,0.111-6.107-0.004
	c-6.288-0.401-12.525-3.299-18.902-2.848c-2.332,0.163-4.004,0.386-6.216-0.525c-1.643-0.676-3.909-2.075-5.819-0.144
	c-1.877,1.898-1.833,3.453-4.147,3.007c-1.515-0.292-3.052-0.938-4.923,0.141c-1.259,0.726-2.741,2.968-4.135,3.04
	c-0.924,0.047-1.697-0.783-2.637-0.884c-0.74-0.081-1.738,0.438-2.502,0.398c-1.567-0.083-3.121,0.509-4.659,0.355
	c-2.37-0.234-3.504-3.331-5.376-4.093c-1.021-0.415-2.371,0.591-3.506,0.562c-1.247-0.034-2.014-1.349-3.143-1.728
	c-0.928-0.312-1.729,0.086-2.594-0.648c-1.766-1.496-2.205-5.259-4.249-6.263c-1.166-0.573-2.177-1.511-3.468-1.604
	c-3.284-0.234-6.012-1.466-9.273-2.052c-1.422-0.257-2.211-1.673-3.457-2.108c-1.681-0.589-3.508,1.128-5.199,2.369
	c-2.207,1.617-3.892,2.371-6.084,2.091c-1.561-0.198-2.864-0.911-4.235-1.788c-0.923-0.593-1.929-1.842-2.974-1.987
	c-0.766-0.106-1.457,0.605-2.224,0.625c-2.294,0.058-6.323-3.142-8.774,0.509c-0.615-1.195-1.607-0.835-2.591-0.337
	c-0.062-0.263-0.05-0.505-0.072-0.814c-3.817-0.133-6.116-5.685-9.979-5.703c-2.036-0.009-3.985,1.111-6.083,0.79
	c-2.473-0.378-4.947,1.36-7.434,1.854c-3.082,0.608-6.352-1.13-9.072-2.275c-3.209-1.351-7.027-4.856-10.635-4.183
	c-1.428,0.267-1.753,0.69-3.154-0.061c-1.4-0.748-2.518,0.038-4.006,0.097c-1.839,0.071-3.484-1.6-5.092-2.523
	c-2.289-1.314-4.322-3.241-6.85-3.784c-1.375-0.295-2.759-0.468-4.14-0.631v357.862c198.929,0.177,654.145,0.558,727.235,0.057l0,0
	h57.174V216H689.071z"/>
</svg>
