<?xml version="1.0" encoding="utf-8"?>
<!-- Generator: Adobe Illustrator 16.0.0, SVG Export Plug-In . SVG Version: 6.00 Build 0)  -->
<!DOCTYPE svg PUBLIC "-//W3C//DTD SVG 1.1//EN" "http://www.w3.org/Graphics/SVG/1.1/DTD/svg11.dtd">
<svg version="1.1" id="Layer_1" xmlns="http://www.w3.org/2000/svg" xmlns:xlink="http://www.w3.org/1999/xlink" x="0px" y="0px"
	 width="68.343px" height="29.959px" viewBox="0 0 68.343 29.959" enable-background="new 0 0 68.343 29.959" xml:space="preserve">
<g>
	<path fill="#560B00" d="M53.949,24.651c0-1.558-0.934-2.84-0.934-2.84l15.326,0.459c0,0-11.901,1.031-11.901,1.965
		c0,0.961,5.5,2.565,5.5,2.565l-8.925,0.688C53.016,27.49,53.949,26.207,53.949,24.651L53.949,24.651z M25.714,20.608
		c20.698,0,25.715-0.903,25.715,3.812c0,4.721-20.365,5.537-25.715,5.537C20.365,29.961,0,29.403,0,24.424
		S5.015,20.608,25.714,20.608L25.714,20.608z"/>
	<path fill="#560B00" d="M23.227,24.282c0-0.417-0.01-1.98-0.016-2.95c-3.229,0.702-3.908-1.368-3.908-1.368
		c-0.527-1.34-1.287-1.695-1.287-1.695c-1.053-0.721,0.08-0.705,0.08-0.705c1.164,0.082,1.777,1.193,1.777,1.193
		c1.032,1.774,2.713,1.264,3.375,0.967c0.104-0.75,0.403-1.263,0.734-1.553c-2.576-0.293-5.284-1.288-5.284-5.729
		c0-1.271,0.453-2.304,1.194-3.114c-0.12-0.293-0.518-1.473,0.113-3.07c0,0,0.974-0.312,3.189,1.19
		c0.924-0.258,1.916-0.388,2.902-0.394c0.984,0.006,1.979,0.136,2.906,0.393c2.214-1.502,3.187-1.19,3.187-1.19
		c0.63,1.601,0.234,2.777,0.113,3.07c0.744,0.812,1.193,1.847,1.193,3.113c0,4.454-2.715,5.437-5.298,5.724
		c0.415,0.36,0.786,1.065,0.786,2.146c0,1.555-0.017,3.729-0.017,3.976c-0.66,0.182-1.69,0.358-2.875,0.358
		c-1.183-0.002-2.134-0.17-2.87-0.36L23.227,24.282L23.227,24.282z"/>
	<path fill="#560B00" d="M25.841,24.046c4.776,0,7.84-0.382,10.204-1.502c2.959-1.398,4.488-3.939,4.488-7.85
		C40.533,6.579,33.953,0,25.84,0c-8.114,0-14.695,6.58-14.695,14.694c0,3.911,1.53,6.448,4.49,7.85c2.364,1.12,5.425,1.5,10.204,1.5
		L25.841,24.046z M25.841,22.041c-9.575,0-13.36-1.792-13.36-8.015c0-7.378,5.982-13.358,13.36-13.358
		c7.377,0,13.355,5.98,13.355,13.358C39.199,20.249,35.414,22.041,25.841,22.041L25.841,22.041z"/>
</g>
</svg>
